<svg preserveAspectRatio="none" width="100%" height="100%" overflow="visible" style="display: block;" viewBox="0 0 141.827 30" fill="none" xmlns="http://www.w3.org/2000/svg">
<g id="Frame 2085665480" clip-path="url(#clip0_0_4)">
<path id="Exclude" d="M8.45312 7.35686C10.2098 11.9836 11.7509 16.8573 13.4902 21.5219L10.2979 21.5248C10.0704 20.811 9.63968 19.3318 9.33105 18.7231C9.11183 18.5982 8.60758 18.6409 8.33105 18.644L4.00098 18.643L3.08301 21.5219H0L5.00879 7.35589L8.45312 7.35686ZM6.65137 10.685C6.09172 12.3841 5.44579 14.5288 4.81641 16.1821L6.83691 16.1811L8.53125 16.183C8.3102 15.476 6.94664 11.0067 6.65137 10.685Z" fill="var(--fill-0, #1C1C1C)"/>
<path id="Vector" d="M58.4766 0.061176L58.5637 0.102705C58.6564 0.477394 58.6179 4.09052 58.6166 4.70854C55.9687 6.32386 52.7215 8.05261 49.9841 9.60243L49.9884 19.6151L46.043 22.0316L45.9436 22.0161C45.8531 21.7048 45.8963 18.6119 45.8961 18.0314L45.8904 7.18519C49.867 5.10359 54.5326 2.30717 58.4766 0.061176Z" fill="var(--fill-0, #1C1C1C)"/>
<path id="Vector_2" d="M59.7225 3.43323e-05C59.9325 0.0849392 60.2236 0.264429 60.4281 0.378809C64.4467 2.62752 68.4243 4.95926 72.4561 7.1833L72.4543 22.07C72.0705 21.9348 68.9201 19.9628 68.3613 19.6175L68.3617 9.59999L59.7223 4.69941L59.7225 3.43323e-05Z" fill="var(--fill-0, #1C1C1C)"/>
<path id="Vector_3" d="M15.5667 7.35404L18.5428 7.35877L18.5403 13.1939L23.9287 7.35959L27.7499 7.35859C26.1042 9.16067 23.8406 11.3823 22.0904 13.1193L26.0096 18.562C26.6523 19.5184 27.457 20.5774 28.1394 21.5221L24.2279 21.5257L19.9718 15.3213C19.4823 15.7961 19.0061 16.2847 18.5438 16.786L18.5407 21.5243L15.5579 21.5249L15.5667 7.35404Z" fill="var(--fill-0, #1C1C1C)"/>
<path id="Vector_4" d="M33.6298 7.00799C35.035 6.81413 36.975 7.07813 38.1309 7.91827C39.5709 8.96482 39.9101 9.99081 40.222 11.6209L37.3528 11.6206C37.1614 10.9578 37.0263 10.5964 36.4684 10.1273C35.1076 8.98256 31.8423 9.00566 31.9303 11.3992C31.9448 11.7972 32.484 12.245 32.8379 12.3959C35.3625 13.4722 40.059 13.1444 40.4668 16.7073C40.8904 20.1763 38.6212 21.5068 35.5239 21.8998C31.8755 21.9789 29.2604 21.1135 28.8493 17.1008L31.6945 17.0956C32.0668 19.2698 33.551 19.5718 35.4774 19.4111C36.0458 19.3656 37.061 19.0923 37.3801 18.5916C38.9368 16.1511 34.5228 15.8298 33.0779 15.3826C30.8676 14.7638 28.9216 13.9549 29.0968 11.297C29.2749 8.59765 31.0508 7.34423 33.6298 7.00799Z" fill="var(--fill-0, #1C1C1C)"/>
<path id="Vector_5" d="M139.051 8.80009L141.821 8.80209L141.827 20.0886L139.541 20.0876L139.544 15.4828L139.541 12.3528C138.574 14.662 137.558 17.6824 136.679 20.0896L134.683 20.0877C133.931 18.0833 132.63 14.1364 131.779 12.3791C131.893 14.7277 131.812 17.6934 131.813 20.0876L129.513 20.0868L129.526 8.80164L132.305 8.802C133.064 10.873 134.002 12.9238 134.791 14.9868C135.073 15.7246 135.393 16.4981 135.73 17.2111C136.619 14.6607 138.033 11.368 139.051 8.80009Z" fill="var(--fill-0, #1C1C1C)"/>
<path id="Vector_6" d="M109.814 8.67321L112.107 8.6803C112.108 9.87059 112.192 19.847 111.995 20.0876L109.812 20.0885L109.811 15.1474L104.953 15.1467V20.0875L102.651 20.0858V8.67894L104.953 8.67866V13.3028L109.808 13.3062L109.814 8.67321Z" fill="var(--fill-0, #1C1C1C)"/>
<path id="Vector_7" d="M125.27 8.67366L127.55 8.67957V10.8432L127.563 14.3031C127.566 15.9576 127.529 17.7329 126.264 18.9837C124.592 20.6386 121.317 20.6292 119.659 18.9559C119.175 18.4682 118.829 17.8609 118.656 17.1958C118.302 15.863 118.443 10.3979 118.449 8.67439L120.73 8.67948L120.71 13.3476C120.706 14.508 120.567 15.8824 121.066 16.9387C121.616 18.1036 123.195 18.3455 124.224 17.7199C124.997 17.2504 125.251 16.1882 125.28 15.3407C125.292 13.1191 125.276 10.8956 125.27 8.67366Z" fill="var(--fill-0, #1C1C1C)"/>
<path id="Vector_8" d="M77.8178 8.67637L80.1123 8.68029V13.3023C81.6629 13.2915 83.9247 13.1513 85.3889 13.4978C85.7245 13.5773 86.9095 14.1398 87.2815 14.3137V20.0879L84.9888 20.0881L84.9879 17.4843L84.9897 15.1489L80.1096 15.147L80.116 20.0886L77.8169 20.0868L77.8178 8.67637Z" fill="var(--fill-0, #1C1C1C)"/>
<path id="Vector_9" d="M92.8442 8.678L101.415 8.68091L101.424 10.5141L98.2891 10.5152L98.2909 16.8474V20.0886L95.9945 20.0872L95.9954 10.5164L92.8415 10.5175L92.8442 8.678Z" fill="var(--fill-0, #1C1C1C)"/>
<path id="Vector_10" d="M59.769 8.61659L61.3042 8.61886L59.8566 13.7938L63.1548 13.7949L58.199 21.0343C58.1552 21.1122 58.0051 21.2738 57.9393 21.349C57.6438 21.3979 57.5797 21.3828 57.2885 21.3089C57.1201 20.996 58.3714 16.8151 58.5476 16.1265C57.518 16.08 56.2554 16.1167 55.2087 16.1201C56.5159 13.7878 58.3544 10.9383 59.769 8.61659Z" fill="var(--fill-0, #1C1C1C)"/>
<path id="Vector_11" d="M89.3141 8.67615L91.625 8.67997L91.6268 20.0872L89.3086 20.0868L89.3141 8.67615Z" fill="var(--fill-0, #1C1C1C)"/>
<path id="Vector_12" d="M114.187 8.67321L116.466 8.68112L116.467 20.0845L114.185 20.0872L114.187 8.67321Z" fill="var(--fill-0, #1C1C1C)"/>
<path id="Vector_13" d="M47.1415 22.5193C47.5121 22.4832 57.4802 28.0346 58.6157 28.6493C58.6104 29.0219 58.7696 29.6471 58.4587 29.8693L58.1279 29.7282L46.1653 23.1269L47.1415 22.5193Z" fill="var(--fill-0, #1C1C1C)"/>
<path id="Vector_14" d="M70.9683 22.5225L71.0711 22.4991C71.4031 22.5858 71.886 22.9299 72.1897 23.1246C70.9829 23.7241 69.5069 24.5948 68.2949 25.2642L60.7385 29.4387L59.7228 30L59.7217 28.6515C63.2545 26.8802 67.441 24.4359 70.9683 22.5225Z" fill="var(--fill-0, #1C1C1C)"/>
<path id="Vector_15" d="M67.8334 20.456C68.2733 20.7194 68.7077 20.9917 69.1363 21.273C66.4756 22.5669 63.4391 24.3025 60.7681 25.7054L59.7231 26.2684L59.7199 24.6907L67.8334 20.456Z" fill="var(--fill-0, #1C1C1C)"/>
<path id="Vector_16" d="M50.4995 20.4522L58.6139 24.6708L58.6153 26.2696L57.745 25.8013C54.9039 24.2744 52.0547 22.7628 49.1973 21.2665L50.4995 20.4522Z" fill="var(--fill-0, #1C1C1C)"/>
<path id="Vector_17" d="M69.5728 21.5335C69.6637 21.5644 70.505 22.0871 70.6441 22.1721C67.4406 24.0062 63.9016 25.8449 60.6423 27.6196L59.7247 28.1123L59.7235 26.8285L69.5728 21.5335Z" fill="var(--fill-0, #1C1C1C)"/>
<path id="Vector_18" d="M48.7516 21.5337C52.0308 23.232 55.3597 25.0714 58.6143 26.8278C58.6282 27.2185 58.7163 27.7572 58.4864 28.015L58.2218 27.8965L47.7031 22.1722L48.7516 21.5337Z" fill="var(--fill-0, #1C1C1C)"/>
<path id="Vector_19" d="M84.9894 8.67434L87.2812 8.67761L87.2739 13.0796C86.5537 12.7925 85.7097 12.3943 84.9894 12.0765V8.67434Z" fill="var(--fill-0, #1C1C1C)"/>
</g>
<defs>
<clipPath id="clip0_0_4">
<rect width="141.827" height="30" fill="white"/>
</clipPath>
</defs>
</svg>
