<svg preserveAspectRatio="none" width="100%" height="100%" overflow="visible" style="display: block;" viewBox="0 0 73.4944 88" fill="none" xmlns="http://www.w3.org/2000/svg">
<g id="Layer_1" clip-path="url(#clip0_0_4)">
<path id="Vector" d="M73.4944 36.7467C73.4944 57.0418 57.0418 73.4934 36.7477 73.4934C16.4536 73.4934 0 57.0418 0 36.7467C0 16.4517 16.4526 0 36.7467 0C57.0408 0 73.4934 16.4526 73.4934 36.7467H73.4944ZM66.7033 36.7486C66.7033 20.2034 53.291 6.79207 36.7467 6.79207C20.2024 6.79207 6.78921 20.2043 6.78921 36.7486C6.78921 53.2929 20.2015 66.7052 36.7458 66.7052C53.29 66.7052 66.7023 53.2929 66.7023 36.7486H66.7033Z" fill="var(--fill-0, #1C1C1C)"/>
<path id="Vector_2" d="M15.4576 79.1587L15.4605 78.7176L15.4338 78.0921L15.4395 77.207C15.4404 77.0169 15.4166 76.8489 15.4863 76.6541L17.1382 76.6522C17.1926 76.6522 17.3034 76.7257 17.3407 76.7687L17.3301 84.1327L17.1993 84.9663C16.9138 86.7892 15.2695 87.8291 13.4629 88L12.1499 87.9981C11.323 87.9265 10.5409 87.6935 9.8582 87.2485C8.88422 86.6145 8.49176 85.6433 8.26832 84.507V76.6617L9.98233 76.6484C10.0215 76.6484 10.1475 76.6837 10.1475 76.719V76.9119L10.1494 83.0012L10.1743 83.8644C10.1838 84.2053 10.2077 84.5032 10.3099 84.8412C10.5304 85.5717 11.1435 86.1685 11.9389 86.2984C12.5042 86.391 13.1478 86.4063 13.7016 86.2879C14.5094 86.116 15.1005 85.5078 15.2886 84.7333L15.407 83.8482L15.4443 82.6145L15.4423 81.8658L15.4576 81.4161V80.0525L15.4586 79.1568L15.4576 79.1587Z" fill="var(--fill-0, #1C1C1C)"/>
<path id="Vector_3" d="M42.8131 85.0103L43.0174 85.629C43.2113 86.2163 43.8434 86.5047 44.4536 86.5514C45.3301 86.6183 46.1762 85.7799 46.4063 84.8747L46.5734 84.2168L46.6393 83.8186L46.7615 82.7348C46.5132 82.8857 46.4712 83.09 46.3146 83.2514C45.7293 83.8549 44.9339 84.0554 44.1117 84.021C43.8081 84.0086 43.5684 83.9838 43.2819 83.8931C42.5944 83.6753 41.9718 83.2867 41.5746 82.6775C40.5366 81.0876 40.7238 78.6995 42.1466 77.5049C42.6364 77.0943 43.2666 76.7964 43.9141 76.7143L44.6751 76.6789L45.3559 76.7162C45.6166 76.7305 45.9346 76.8202 46.1809 76.9272C47.4032 77.4572 47.9551 78.5266 48.2444 79.7852L48.3227 80.2884L48.4392 81.1029L48.444 83.2953L48.3161 84.0134C48.0516 85.4944 47.555 86.6278 46.285 87.4672L45.7789 87.7221C45.1821 87.9446 44.5328 88.0124 43.9121 87.9341C43.0661 87.8272 42.3566 87.429 41.8028 86.7883C41.4457 86.3748 41.0876 85.5679 41.1583 85.017L42.815 85.0112L42.8131 85.0103ZM44.7582 82.6699C45.7341 82.5677 46.4493 81.8171 46.5228 80.8785L46.5715 80.2559C46.5543 79.3984 46.0883 78.5505 45.3044 78.2211C45.207 78.18 45.0867 78.1294 44.9711 78.1284L44.2435 78.1208C44.0134 78.1179 43.8081 78.2363 43.6142 78.3547C43.09 78.6756 42.7758 79.239 42.6966 79.8396C42.5744 80.7582 42.7357 81.7532 43.4653 82.2955C43.851 82.582 44.2511 82.7233 44.7572 82.6708L44.7582 82.6699Z" fill="var(--fill-0, #1C1C1C)"/>
<path id="Vector_4" d="M61.2929 86.4244C61.9451 86.5887 62.0912 86.5963 62.7797 86.3977C63.3516 86.2325 63.8568 85.8076 64.022 85.2251C64.148 84.7792 64.1556 84.2492 64.001 83.8233C63.7937 83.2533 63.2705 82.9028 62.6947 82.8026L62.0463 82.6909L61.2413 82.6689V81.4428L61.7885 81.4018L62.2382 81.3072C62.8446 81.1802 63.3058 80.8498 63.5779 80.2922C63.6667 80.1098 63.6706 79.9045 63.6811 79.7174C63.7269 78.858 63.0566 78.2 62.1962 78.1208C61.7026 78.075 61.2452 78.1447 60.8584 78.4856C60.3743 78.9124 60.1136 79.6018 60.1499 80.3256L58.4206 80.3304C58.4206 79.9895 58.4464 79.682 58.5457 79.366L58.6737 78.9592C59.0232 77.8439 60.1184 76.9224 61.2394 76.72L61.9585 76.6799L62.5801 76.7162L63.301 76.8852L63.8673 77.1277C65.2824 77.735 65.7121 79.3278 65.1965 80.7057C65.0017 81.228 64.4765 81.6701 63.9446 81.8601C63.9666 81.9938 64.127 82.0138 64.2483 82.0559C64.5586 82.1619 64.8479 82.3681 65.0857 82.6021C65.6911 83.1969 65.9613 84.2998 65.8238 85.1516C65.6443 86.2678 64.9453 87.1502 63.8892 87.5722C63.1941 87.8501 62.4483 88.0038 61.6892 87.9513C60.9931 87.9026 60.3056 87.7775 59.7135 87.3956C59.0384 86.9592 58.6078 86.2449 58.3882 85.4839L58.2335 84.7706C58.1914 84.5787 58.1915 84.3953 58.2325 84.1948H59.8463C60.0306 84.4096 59.9188 84.7954 60.0602 85.1879C60.2702 85.7723 60.6818 86.2717 61.2948 86.4254L61.2929 86.4244Z" fill="var(--fill-0, #1C1C1C)"/>
<path id="Vector_5" d="M27.1607 86.1103L27.1798 87.7785L19.6801 87.7823C19.6047 87.7823 19.5818 87.5932 19.6324 87.5283V76.657L21.5354 76.6512L21.5383 86.1093H27.1597L27.1607 86.1103Z" fill="var(--fill-0, #1C1C1C)"/>
<path id="Vector_6" d="M51.2055 86.5171L51.281 86.1141L51.429 85.4486C51.6715 84.3571 52.1108 83.3497 52.6073 82.3385L53.798 80.3399L54.5448 79.3211L55.0442 78.7176C55.1215 78.624 55.1922 78.5619 55.1693 78.4311H49.6138L49.5966 77.08C49.5966 77.0093 49.6558 76.8919 49.7522 76.8919H56.8441C56.8804 76.8919 57.0026 76.931 57.0036 76.9654L57.0084 77.1459L56.9912 78.3652C55.2466 80.3629 53.9164 82.583 53.3483 85.1707L53.2108 85.7952L53.0943 86.4846L52.9205 87.7785L51.0423 87.7832L51.2046 86.5171H51.2055Z" fill="var(--fill-0, #1C1C1C)"/>
<path id="Vector_7" d="M32.5557 80.0506L32.5577 78.6937L33.461 78.6374L34.0358 78.5075C34.604 78.3796 35.5569 77.7369 35.6486 77.1248C35.6677 76.9998 35.7527 76.8928 35.9016 76.8928L37.0494 76.8899L37.143 77.1V87.7727L35.2304 87.7746V80.1509L35.0833 80.0477L32.5548 80.0497L32.5557 80.0506Z" fill="var(--fill-0, #1C1C1C)"/>
<path id="Vector_8" d="M36.72 40.9043C36.4316 42.0177 35.9943 43.0375 35.2772 43.9141C35.0184 44.2292 34.7615 44.5109 34.4445 44.7563L34.0654 45.0494C33.502 45.4848 32.8852 45.8105 32.1958 46.0033L30.8494 46.3796L30.0864 46.5199L28.8164 46.6288H27.3774C24.2951 46.625 21.0714 45.4447 19.7298 42.4894C19.4949 41.9728 19.2896 41.4868 19.1759 40.9367L19.0757 40.4517L18.9983 39.8663L18.8637 38.9964L18.8618 17.0064L25.396 16.9969L25.5603 17.0723C25.5994 17.0905 25.5517 17.1831 25.5517 17.2643L25.5574 39.0709C25.5574 39.3984 25.6481 39.7479 25.7178 40.0286C25.9222 40.8508 26.6001 41.355 27.4042 41.4514C27.8109 41.5001 28.1537 41.5068 28.5653 41.4008C29.3235 41.2051 29.9298 40.5968 30.1237 39.8167C30.1905 39.5455 30.3137 39.2552 30.3137 38.9515V17.0055L36.8498 16.9969L37.015 17.0723C37.0542 17.0905 37.0064 17.1821 37.0064 17.2643V39.2781L36.7228 40.9052L36.72 40.9043Z" fill="var(--fill-0, #1C1C1C)"/>
<path id="Vector_9" d="M54.7682 50.6861L54.7768 56.4793L39.7613 56.4755L39.7584 27.513L46.498 27.5149L46.497 50.6832L54.7682 50.6861Z" fill="var(--fill-0, #1C1C1C)"/>
<path id="Vector_10" d="M32.084 52.4144C32.084 54.6966 30.2344 56.5462 27.9523 56.5462C25.6701 56.5462 23.8205 54.6966 23.8205 52.4144C23.8205 50.1322 25.6701 48.2826 27.9523 48.2826C30.2344 48.2826 32.084 50.1322 32.084 52.4144ZM31.6085 52.4135C31.6085 50.3939 29.9709 48.7563 27.9513 48.7563C25.9317 48.7563 24.2941 50.3939 24.2941 52.4135C24.2941 54.433 25.9317 56.0707 27.9513 56.0707C29.9709 56.0707 31.6085 54.433 31.6085 52.4135Z" fill="var(--fill-0, #1C1C1C)"/>
<path id="Vector_11" d="M29.1907 53.3674L29.2853 54.3165C29.2948 54.413 29.3636 54.4875 29.46 54.6584L28.8985 54.6431C28.7916 54.158 28.7534 53.7675 28.7238 53.2652C28.7123 53.0781 28.4755 52.7295 28.2578 52.7257L27.0804 52.7037L27.0728 54.5677C27.0279 54.7023 26.6355 54.7014 26.6364 54.5705L26.6412 50.1838L28.1003 50.2L28.5414 50.2879C29.1143 50.4025 29.3397 51.1759 29.1917 51.7756C29.1382 51.9924 28.889 52.2492 28.7133 52.3208L28.5538 52.3438C28.5271 52.3476 28.4908 52.4096 28.5051 52.4326C28.5882 52.572 29.015 52.5023 29.1096 52.9702L29.1898 53.3664L29.1907 53.3674ZM28.4832 52.0907C28.7305 51.9217 28.7601 51.6811 28.7601 51.4118C28.7601 51.0537 28.571 50.7004 28.1814 50.6345L27.0785 50.6412L27.0814 52.2492L27.7441 52.276C27.999 52.2865 28.2616 52.2397 28.4832 52.0888V52.0907Z" fill="var(--fill-0, #1C1C1C)"/>
</g>
<defs>
<clipPath id="clip0_0_4">
<rect width="73.4944" height="88" fill="white"/>
</clipPath>
</defs>
</svg>
