<svg preserveAspectRatio="xMidYMid meet" style="display: block;" viewBox="0 0 44 88" fill="none" xmlns="http://www.w3.org/2000/svg">
<g id="Layer_1" clip-path="url(#clip0_0_36)">
<path id="Vector" d="M21.5289 70.6678L21.4839 69.5627C21.4798 69.4697 21.4198 69.3056 21.3502 69.2605C21.2807 69.2153 21.0598 69.24 20.9971 69.2974L20.3343 69.921L19.958 70.3026L19.3021 71.0179L18.9025 71.4337L18.4116 72.0382L17.9385 72.6632L17.6153 73.1651L17.3139 73.6766C16.7548 74.6271 16.3294 75.5845 16.0826 76.6731L15.8426 78.1379C15.773 79.0829 15.8753 80.0622 16.1235 80.9593L16.4453 81.8237C16.4821 81.9208 16.3921 82.167 16.3007 82.2025C16.2094 82.2381 16.0307 82.1861 15.9148 82.1396L15.1744 81.8483L13.9021 81.2889L13.433 81.0072C13.2149 80.8759 13.073 80.7569 12.893 80.5846L12.1908 79.909C12.1171 79.8379 11.8458 79.805 11.8212 79.9049C11.7749 80.0909 11.8608 80.2646 11.8921 80.4232L12.2126 82.0904L12.6026 83.9367L13.0962 85.9143C13.2121 86.378 13.3444 86.8512 13.5599 87.2998C13.5994 87.3818 13.5721 87.6061 13.519 87.6745C13.4576 87.7538 13.2135 87.8154 13.1262 87.7648L12.3299 87.3093L11.7299 86.9647L10.8231 86.2836C10.2463 85.8501 9.75126 85.3686 9.28763 84.8216L8.90854 84.3744L8.42173 83.7671L8.05083 83.2488L7.72765 82.7469L7.38947 82.1998L7.07447 81.624L6.7922 81.0893L6.57675 80.6202C6.06403 79.5028 5.72858 78.369 5.52131 77.1696C5.28267 75.7896 5.34949 74.3016 5.66312 72.934L6.6313 68.697L6.93538 67.6466L7.63765 65.4762L7.84492 65.0153L8.08219 64.4778L8.33719 64.0032L8.68082 63.2948C8.72855 63.1963 8.87036 63.0472 8.95627 62.9843C9.05036 62.916 9.34763 62.9789 9.38172 63.1115C9.53854 63.716 9.71854 64.3192 10.0049 64.8758L10.2122 65.2792L10.5531 65.8933L10.8708 66.4021C10.984 66.584 11.134 66.729 11.2812 66.878L11.8349 67.4388C11.9208 67.5263 12.1758 67.5345 12.2753 67.4812C12.4253 67.4005 12.4171 67.1844 12.3953 66.9915C12.2944 66.1012 12.3462 65.2136 12.5017 64.3096L12.9612 62.466L13.4808 61.0847L14.0862 59.8319L14.4108 59.2602L14.7135 58.7569L15.3994 57.723L16.1167 56.8176L16.5176 56.3211C17.2607 55.3994 18.0694 54.5706 18.9707 53.7978L20.1557 52.7817L20.7966 52.2797L21.3748 51.8312L22.017 51.2964C22.0798 51.2431 22.242 51.1624 22.3239 51.1665C22.4057 51.1706 22.5407 51.3005 22.5693 51.3894C22.6579 51.6643 22.4125 51.8982 22.3607 52.1115C22.2039 52.753 22.0948 53.393 22.043 54.0495L21.9775 54.8837V55.9587L22.0525 56.7711L22.2652 58.0075L22.5229 58.9717L23.1993 60.7482L23.4325 61.1913L23.6957 61.7001L24.0134 62.2485L24.3911 62.838L24.7538 63.355L25.0825 63.8583L25.4179 64.404L25.7943 65.0481C26.1188 65.6047 26.4311 66.1368 26.6138 66.7549L27.0011 68.0624L27.1579 68.8857C27.3338 69.8089 26.9247 69.9634 27.1688 70.2042C27.342 70.3751 27.7674 70.133 28.0715 69.679L28.4274 69.1497C28.8065 68.5849 29.0533 68.0173 29.2292 67.3485L29.4338 66.5689L29.5101 65.8113L29.5592 64.8621L29.5115 64.0388L29.4379 63.2811L29.1624 62.1337C29.1433 62.0557 29.2265 61.8519 29.2933 61.8396C29.3752 61.8246 29.5061 61.9258 29.562 62.0024L29.9738 62.5686L30.4401 63.5273L31.5665 65.9576L31.8065 66.6182L32.3997 68.3483L32.7774 69.9552L32.9656 70.996L33.1769 72.4813L33.1728 75.4217L32.8769 77.3706L32.581 78.6015L32.2197 79.5999L31.7547 80.6393L31.1779 81.7717L30.7306 82.4774L30.4292 82.9383L30.0542 83.5223L29.4815 84.2308L28.8747 84.9228L28.3688 85.4411L27.8002 85.9677L27.2847 86.4081L26.1843 87.2204L25.6429 87.5815L24.9147 87.9932C24.8588 88.0246 24.6693 87.8701 24.6747 87.8072C24.7034 87.4967 24.9856 87.1288 25.1111 86.8402C25.5256 85.8884 25.7602 84.9036 25.9129 83.8697L25.9347 83.123L25.9238 82.3612L25.8297 81.3642C25.7493 80.5149 25.4547 79.7353 25.0634 78.9708L24.7361 78.3307L24.4416 77.8206L24.0898 77.2708L23.7625 76.788L23.3657 76.1616C22.3102 74.4972 21.7048 72.6728 21.5289 70.6664V70.6678Z" fill="var(--fill-0, #9FA5AB)"/>
<path id="Vector_2" d="M33.8833 6.73704L10.6022 6.74114C10.3213 6.74114 10.2026 7.0051 10.2081 7.19657L10.2299 7.90638L10.2394 15.0688C10.0485 15.5762 10.2885 16.0507 10.7535 16.2613L12.4553 17.1626L12.8876 17.4074L13.4303 17.7001L13.9526 17.9832L14.9821 18.5412C15.3217 18.7259 15.7212 19.0787 15.848 19.4822C16.0607 20.1578 15.5794 20.8785 14.9289 21.0714C14.7667 21.1192 14.3576 21.148 14.2049 21.0659L12.7062 20.2658L11.7394 19.7324L11.2567 19.4685L9.02991 18.2691L8.63309 18.0598C8.05219 17.7535 7.64037 17.2802 7.64174 16.5745L7.65674 7.72858C7.65674 7.44138 7.65674 7.19657 7.60901 6.89979C7.43992 6.7808 7.11811 6.66592 6.91766 6.69191C6.26448 6.77533 5.59767 6.82183 5.01813 6.47992L4.49586 6.1722C4.32132 6.06963 4.04178 5.80157 3.93269 5.61557L3.60405 5.05346L3.42133 4.53786L3.39678 0.871192C3.39542 0.586721 3.2986 0.376103 3.49905 0.164118C3.73769 -0.0861619 3.9395 0.0300883 4.26541 0.0300883H40.2773C40.6646 0.0300883 40.9905 -0.118985 41.3205 0.22703L41.3164 4.49273C40.9823 5.69215 40.1764 6.49086 38.9819 6.72746L37.6442 6.73704C37.336 6.73977 37.2337 6.92851 37.2337 7.21845V17.1066L36.8123 17.6728C36.7169 17.8 36.421 17.9846 36.2764 18.0584L35.7255 18.3402L35.1092 18.6698L34.2119 19.1662L32.2592 20.2139L31.2106 20.8101C30.7033 21.0987 30.1524 21.2546 29.622 20.9004C29.232 20.6392 28.8515 20.0511 29.0465 19.5122L29.3588 18.9433C29.8497 18.5672 30.3597 18.2964 30.8942 18.0078L31.426 17.7206L31.9088 17.4594L32.4528 17.1736L33.0215 16.8727L33.8915 16.3749C34.5555 16.1984 34.8801 15.5721 34.6455 14.9169L34.6769 10.8687L34.6892 8.51635C34.6905 8.19358 34.636 7.94057 34.6974 7.60003C34.7274 7.4318 34.6905 7.06664 34.5896 6.93261C34.4219 6.70832 34.1669 6.73294 33.8819 6.73294L33.8833 6.73704Z" fill="var(--fill-0, #9FA5AB)"/>
<path id="Vector_3" d="M15.8835 27.1779C15.5126 27.1779 15.3762 26.8141 15.3817 26.5967L15.3967 25.8787L15.4157 23.3376C15.4198 22.8192 15.7976 22.1641 16.4221 22.16L20.7843 22.1368C21.0284 22.1368 21.2398 22.2407 21.4034 21.948C21.5343 21.7128 21.4334 21.4311 21.4307 21.1548L21.3884 13.8748C21.3843 13.2867 21.3721 12.7246 21.8684 12.3075C22.2843 11.9574 22.9484 11.8165 23.3738 12.224C23.5552 12.3977 23.9316 12.6822 23.9329 12.968L23.9425 22.0232C24.2847 22.1833 24.612 22.1286 24.9597 22.1286H28.7779C29.382 22.1286 29.9697 22.6291 29.9711 23.2528L29.9792 25.2564C29.9806 25.6434 29.9383 25.9593 30.0024 26.3669C30.042 26.6199 30.0256 27.0671 29.6942 27.1766H15.8862L15.8835 27.1779Z" fill="var(--fill-0, #9FA5AB)"/>
<path id="Vector_4" d="M10.3703 35.4823L9.93535 35.0788C9.78535 34.9393 9.67081 34.6644 9.59035 34.4648C9.44172 34.0955 9.57399 33.4459 9.87944 33.0684L10.4222 32.5569C10.5531 32.4338 10.8517 32.2601 11.0208 32.1685C11.6999 31.8047 12.3599 31.6105 13.069 31.3903C13.3226 31.3123 13.7071 31.1318 13.9062 31.445C13.9349 31.8525 13.7821 32.323 13.6512 32.7128L13.2162 34.0107L12.9708 34.5263L12.7349 34.886C12.2576 35.6136 11.4449 36.0936 10.6703 35.6532L10.369 35.4823H10.3703Z" fill="var(--fill-0, #9FA5AB)"/>
<path id="Vector_5" d="M35.2442 34.5536C34.9251 35.366 33.8206 36.1702 32.8469 35.5999C31.8733 35.0296 31.471 33.5922 31.1601 32.509C31.0524 32.1329 30.9679 31.7554 30.942 31.3465C31.3824 31.1646 31.7138 31.3739 32.1051 31.4915C33.0515 31.776 33.9896 32.096 34.7165 32.7675C35.2196 33.2325 35.4978 33.9068 35.2442 34.5523V34.5536Z" fill="var(--fill-0, #9FA5AB)"/>
<path id="Vector_6" d="M33.9078 45.4292C33.1415 45.9516 32.4119 46.0405 31.786 45.3581C31.6115 45.168 31.4424 44.9573 31.3429 44.7166C31.021 43.933 30.8792 43.1603 30.796 42.3219L30.7224 41.5656C30.7033 41.3727 30.6801 41.1621 30.8233 41.0295C30.9665 40.8968 31.2106 40.9242 31.396 41.0254L32.6397 41.7065L33.2792 42.1496L33.8492 42.6105C34.0769 42.7951 34.2337 43.0481 34.3974 43.2875C34.9019 44.0232 34.651 44.9218 33.9092 45.4265L33.9078 45.4292Z" fill="var(--fill-0, #9FA5AB)"/>
<path id="Vector_7" d="M20.708 34.9817C20.5539 34.4183 20.7284 33.8808 20.9125 33.3884L21.098 32.8892L21.3884 32.2929L21.653 31.8006L21.987 31.1687C22.077 30.9991 22.2175 30.8131 22.3989 30.8118C22.6525 30.8077 22.7316 31.0347 22.8434 31.2221C23.4379 32.2259 23.9111 33.2489 24.0693 34.4292C24.1525 35.046 23.8716 35.6204 23.3329 35.9541C22.9089 36.2167 22.313 36.3152 21.833 36.1374C21.3121 35.9445 20.8607 35.5397 20.708 34.9804V34.9817Z" fill="var(--fill-0, #9FA5AB)"/>
<path id="Vector_8" d="M20.948 45.9872C20.4816 45.7643 20.0262 45.0845 20.1093 44.4746L20.198 43.8222C20.2539 43.4037 20.4066 43.0167 20.5948 42.6433L20.8239 42.1879L21.1811 41.567C21.3271 41.3139 21.4743 40.8462 21.8302 40.7915C22.1561 40.8407 22.313 41.2756 22.4493 41.5355C22.8175 42.2357 23.1857 42.9045 23.3711 43.68L23.5225 44.8192L23.3248 45.3608C22.7861 46.1513 21.7934 46.3907 20.9521 45.9886L20.948 45.9872Z" fill="var(--fill-0, #9FA5AB)"/>
<path id="Vector_9" d="M0.499086 42.4532C-0.126817 41.8829 -0.15818 41.0336 0.365451 40.3935C0.530449 40.1911 0.694084 40.0078 0.924536 39.8601L1.46862 39.5073L2.01952 39.2378L2.60179 39.0163L3.23997 38.8125C3.52633 38.7209 3.94496 38.4446 4.24223 38.6607C4.55586 38.8891 4.34996 39.3021 4.26677 39.5798L3.94769 40.6397C3.81132 41.091 3.64633 41.5218 3.38178 41.9089L3.05179 42.393C2.54588 43.1343 1.64998 43.3586 0.909536 42.8252L0.501813 42.4546L0.499086 42.4532Z" fill="var(--fill-0, #9FA5AB)"/>
<path id="Vector_10" d="M43.4246 41.8036C42.8246 42.404 42.0568 42.6529 41.45 42.1564C41.2918 42.0265 41.0028 41.8063 40.8964 41.6408L40.5214 41.0541L40.2514 40.5111L39.7455 38.9465C39.6378 38.6156 39.5832 38.3092 39.6419 37.9427C40.0946 37.8593 40.4832 37.9536 40.8528 38.1642C42.0541 38.4227 43.6495 39.1681 43.9591 40.321C44.1118 40.89 43.8132 41.4138 43.4232 41.8036H43.4246Z" fill="var(--fill-0, #9FA5AB)"/>
<path id="Vector_11" d="M12.8467 42.7718C12.7458 44.1614 12.2262 45.9256 10.7794 45.8026C10.2722 45.7602 10.009 45.6097 9.63399 45.2924C8.94809 44.7098 8.89218 43.7907 9.46081 43.0782C10.1372 42.2289 11.0644 41.6545 12.0203 41.1525C12.2644 41.024 12.4526 40.7833 12.7294 40.9912C12.9612 41.1649 12.9449 41.3974 12.9244 41.6859L12.8453 42.7732L12.8467 42.7718Z" fill="var(--fill-0, #9FA5AB)"/>
</g>
<defs>
<clipPath id="clip0_0_36">
<rect width="44" height="88" fill="white"/>
</clipPath>
</defs>
</svg>
