<svg preserveAspectRatio="none" width="100%" height="100%" overflow="visible" style="display: block;" viewBox="0 0 74.9501 88" fill="none" xmlns="http://www.w3.org/2000/svg">
<g id="Layer_1" clip-path="url(#clip0_0_16)">
<path id="Vector" d="M71.7753 76.5026L68.5889 76.5674L68.5074 84.5742C68.3911 86.3927 66.7305 87.985 64.8739 87.9867L4.36327 88C2.47002 87.8305 0.964074 86.4824 0.738015 84.5875V52.4373C0.955763 50.6455 2.39024 49.078 4.28016 49.0714L18.3573 49.0248L34.2479 38.5031C34.5753 38.287 35.0009 38.4084 35.2602 38.5646C35.5544 38.7425 35.6525 39.0899 35.6525 39.4755V49.0315L64.6528 49.0281C66.6607 49.0281 68.5191 50.5424 68.5307 52.6085L68.5706 60.2397C68.5706 60.3061 68.5939 60.4524 68.6404 60.4508L68.8582 60.4391L71.2268 60.4358C73.0768 60.4341 74.9119 61.9384 74.9185 63.9231L74.9468 73.1084C74.9518 74.606 73.4059 76.3397 71.7736 76.5009L71.7753 76.5026ZM71.2983 74.6825C72.4768 74.6725 73.0968 73.5821 73.0934 72.5299L73.0652 64.7409C73.2946 63.6355 72.5682 62.3739 71.378 62.3606L67.57 62.3141C67.1212 62.3091 66.679 61.8736 66.6774 61.3849L66.6291 52.5138C66.6258 51.8323 65.7947 50.9463 65.065 50.9463L34.7648 50.933C34.2512 50.933 33.7642 50.5374 33.7642 49.9955L33.7592 41.4868C33.7592 41.3338 33.7808 41.2557 33.7127 41.1178L21.434 49.2492L19.3696 50.6172C19.1352 50.7718 18.8427 50.9347 18.5268 50.9347H4.24857C3.20638 51.1258 2.54649 51.9619 2.58305 53.0324V84.4761C2.85565 85.3372 3.47898 86.0918 4.42643 86.0918H64.9703C65.8413 85.9588 66.453 85.3421 66.6624 84.5044L66.6657 75.6349C66.6657 75.123 67.0929 74.7191 67.5766 74.7157L71.2983 74.6841V74.6825Z" fill="var(--fill-0, #1C1C1C)"/>
<path id="Vector_2" d="M38.3967 1.90322L30.8803 1.89823L29.9395 8.46224C29.8514 9.08224 29.5804 9.39141 28.9638 9.52605C26.0017 10.1726 23.2209 11.3727 20.6744 13C20.2838 13.1978 19.9065 13.1762 19.574 12.907L14.1403 8.83125L8.81962 14.1503L12.9984 19.7236C13.153 20.096 13.1347 20.4018 12.9502 20.7558C11.2714 23.3489 10.1211 26.1829 9.44959 29.2048C9.37479 29.5439 9.07227 29.8564 8.71157 29.9062L2.25228 30.8271C2.03785 30.857 1.85002 30.9052 1.85002 31.1728V37.9662C1.85002 38.0842 1.9215 38.3086 1.96804 38.4283L8.64675 39.3708C9.00412 39.4207 9.34986 39.655 9.4313 40.0257C9.88342 42.0652 10.5799 43.985 11.4309 45.9049C11.6453 46.3869 11.1567 46.9255 10.7694 47.0186C10.2009 47.1549 9.80031 46.8457 9.57591 46.3387C8.82959 44.6582 8.2179 42.9794 7.76744 41.1443L0.889275 40.1703C0.349061 40.0938 -0.0265951 39.6966 0.00831098 39.1298V30.2403C-0.0265951 29.868 0.186166 29.253 0.623324 29.1882L7.77576 28.1327C8.45227 25.3302 9.53768 22.7355 11.0303 20.2605L7.6112 15.6579L6.77844 14.5542C6.61887 14.2616 6.54905 13.7696 6.8549 13.4638L13.4422 6.87318C13.768 6.54739 14.2799 6.58562 14.6057 6.8283L16.6103 8.32262L19.4111 10.422L20.2273 11.0769C22.6757 9.5327 25.3319 8.4772 28.1294 7.7824L29.1433 0.791206C29.2098 0.329115 29.5954 0.0797854 30.0359 -0.0016622H39.1298C39.5121 0.0631635 40.0556 0.242681 40.1188 0.689812L41.1377 7.77409C43.9717 8.48053 46.5714 9.56095 49.0182 11.0403L51.5131 9.19527L54.7328 6.77511C55.0985 6.49919 55.6138 6.66208 55.8914 6.93635L59.357 10.3704L62.3806 13.4089C62.6615 13.7048 62.7047 14.0323 62.5717 14.4561L58.2251 20.2572C59.7576 22.7256 60.8065 25.3701 61.5196 28.146L68.4858 29.1483C68.9645 29.2414 69.2671 29.5821 69.2471 30.0808V39.1281C69.3003 39.6683 68.9712 40.0872 68.4343 40.1637L61.5378 41.1443C60.9893 43.0575 60.4242 44.8959 59.5349 46.618C59.2939 47.0834 58.7387 47.1864 58.3331 47.0069C57.9276 46.8274 57.645 46.2623 57.8677 45.7919C58.752 43.9186 59.4169 42.0137 59.849 39.9725C60.0103 39.7065 60.2347 39.5021 60.5256 39.3808L67.4037 38.42V30.8819L60.4624 29.8896C60.0967 29.7217 59.884 29.4309 59.7826 29.0386C59.131 26.045 57.9209 23.2641 56.2803 20.6894C55.9878 20.2289 56.1806 19.84 56.4681 19.4577L59.5233 15.3853L60.4774 14.1287L58.6257 12.3401L55.1284 8.82959L49.7811 12.8471C49.2359 13.2577 48.827 13.1613 48.2768 12.8122C45.7536 11.2148 42.9894 10.1211 40.0872 9.46787C39.6667 9.34653 39.4273 9.07393 39.3658 8.6534L38.4017 1.90322H38.3967Z" fill="var(--fill-0, #1C1C1C)"/>
<path id="Vector_3" d="M45.3647 33.8174C44.8926 27.7853 39.5254 23.3339 33.5149 23.9539C28.2889 24.4925 24.2647 28.7194 23.8907 33.9487C23.7378 36.0796 24.3013 38.184 25.3352 40.049C25.6028 40.531 25.3585 41.0413 24.9479 41.2773C24.5373 41.5134 23.9739 41.402 23.7096 40.9515C20.7691 35.9217 21.7016 29.5671 25.8887 25.5347C29.7799 21.7881 35.6608 20.932 40.4612 23.442C44.5485 25.5779 47.1249 29.6902 47.2729 34.316C47.2895 34.8297 47.2363 35.2552 46.736 35.4862C46.3853 35.6491 45.7486 35.6076 45.5475 35.1388C45.3796 34.7466 45.3996 34.2712 45.3647 33.819V33.8174Z" fill="var(--fill-0, #1C1C1C)"/>
<path id="Vector_4" d="M71.2983 74.6825L67.5766 74.7141C67.0929 74.7191 66.6657 75.1213 66.6657 75.6333L66.6624 84.5027C66.4546 85.3405 65.8413 85.9572 64.9703 86.0918H4.42477C3.47732 86.0901 2.85399 85.3355 2.58139 84.4745V53.0307C2.54316 51.9603 3.20471 51.1242 4.24691 50.933H18.5252C18.841 50.933 19.1335 50.7718 19.3679 50.6155L21.4324 49.2476L33.711 41.1161C33.7792 41.2541 33.7575 41.3322 33.7575 41.4851L33.7625 49.9939C33.7625 50.5341 34.2512 50.9314 34.7632 50.9314L65.0634 50.9447C65.7931 50.9447 66.6242 51.8306 66.6275 52.5121L66.6757 61.3833C66.679 61.8719 67.1195 62.3058 67.5683 62.3124L71.3764 62.359C72.5649 62.3739 73.2912 63.6355 73.0635 64.7392L73.0918 72.5283C73.0951 73.5804 72.4751 74.6709 71.2966 74.6808L71.2983 74.6825ZM20.686 77.573C23.5716 75.7363 24.0719 71.8351 21.803 69.3518C21.3094 68.8116 20.7558 68.4227 20.0893 68.047C21.7681 66.5061 22.3299 64.189 21.4922 62.0298C20.7675 60.1599 18.9407 58.634 16.7516 58.624L9.06728 58.5891C8.63179 58.5874 8.06165 58.9215 8.06165 59.4285L8.05833 77.6761C8.27275 78.2612 8.81463 78.5238 9.40637 78.3742L18.3656 78.3559C19.1984 78.3559 19.9962 78.0135 20.686 77.5747V77.573ZM42.8581 62.4188C42.9379 62.8892 42.9445 62.9839 42.9462 63.2399L42.9512 64.0029V76.6007L42.9379 77.2921C42.9262 77.8639 43.1606 78.3576 43.7839 78.4108C44.1762 78.444 44.7962 78.1515 44.7962 77.5863L44.7929 59.362C44.7929 58.8983 44.2261 58.6124 43.9285 58.5941C43.4964 58.5675 43.2254 58.8285 42.9611 59.1725L35.4896 68.9113L28.018 59.1725C27.7554 58.8318 27.4213 58.5259 26.9941 58.614C26.7215 58.6705 26.1846 58.9398 26.1846 59.3554L26.1879 77.6728C26.1879 78.1681 26.9558 78.474 27.2384 78.4025C27.8767 78.2363 28.0612 77.8423 28.028 77.2755V76.4411L28.0246 63.6621L28.0994 62.3872L34.6335 70.8927C34.8413 71.1636 35.1006 71.3548 35.3848 71.383C35.6491 71.4096 36.0381 71.28 36.2326 71.0273L42.8581 62.4188ZM62.1329 70.1331C61.2071 68.4576 59.5316 67.3588 57.6583 67.3389L53.2734 67.2907C51.435 67.2708 50.0886 65.6335 50.1053 63.8599C50.1219 62.1595 51.4683 60.5156 53.2717 60.5222L57.4289 60.5372C58.9681 60.627 60.1782 61.9318 60.4059 63.3912C60.4657 63.7768 60.4242 64.1475 60.617 64.4533C60.8696 64.8556 61.3999 64.9088 61.7789 64.7392C62.1578 64.5697 62.3523 64.199 62.3324 63.7386C62.2044 60.8696 59.9438 58.5991 57.0715 58.6074L53.3 58.6174C50.4061 58.7453 48.2137 61.1123 48.2286 63.9447C48.2419 66.7405 50.4493 69.046 53.3 69.1989L57.8361 69.2671C59.6812 69.4366 61.0059 71.1553 60.9827 72.9189C60.9594 74.6825 59.603 76.343 57.7281 76.481L53.0457 76.4926C51.1092 76.4029 49.7296 74.7423 49.6847 72.9006C49.6698 72.2856 49.1944 71.9 48.6608 71.9498C48.1272 71.9997 47.7532 72.4535 47.7898 73.0602C47.9477 75.7313 49.9324 78.1399 52.6966 78.326L57.9209 78.3377C59.7593 78.341 61.37 77.0013 62.1445 75.59C63.1219 73.8082 63.082 71.8584 62.1312 70.138L62.1329 70.1331Z" fill="var(--fill-0, #1C1C1C)"/>
<path id="Vector_5" d="M12.4532 69.3269C12.6327 69.41 12.9867 69.4632 13.2128 69.4649L18.1229 69.4931C19.7818 69.5031 20.9902 70.8395 21.3193 72.4468C21.6019 74.3584 20.2206 76.3613 18.1661 76.4777L9.9017 76.5392L9.90503 60.4923L16.8696 60.5389C18.6066 60.5505 19.8699 62.1778 20.0079 63.84C20.071 65.7083 18.6831 67.3871 16.7882 67.5284L12.8039 67.5699C12.3717 67.5749 12.0908 67.9589 12.0027 68.313C11.9146 68.667 12.0576 69.1457 12.4532 69.3269Z" fill="var(--fill-0, #1C1C1C)"/>
</g>
<defs>
<clipPath id="clip0_0_16">
<rect width="74.9501" height="88" fill="white"/>
</clipPath>
</defs>
</svg>
