<svg preserveAspectRatio="none" width="100%" height="100%" overflow="visible" style="display: block;" viewBox="0 0 265 88" fill="none" xmlns="http://www.w3.org/2000/svg">
<g id="Layer_1" clip-path="url(#clip0_0_34)">
<path id="Vector" d="M264.052 79.0241C262.758 82.9909 259.679 85.546 255.615 85.568L243.438 85.634V50.8408L257.76 51.0673C261.399 51.1244 263.693 55.8279 264.344 58.8514C265.305 65.7493 265.167 71.9898 264.05 79.0263L264.052 79.0241ZM256.051 59.0603C255.823 57.5122 252.156 56.8086 251.448 58.0136L251.474 78.813C257.771 81.6716 257.427 68.3748 256.054 59.0581L256.051 59.0603Z" fill="var(--fill-0, #1C1C1C)"/>
<path id="Vector_2" d="M193.558 82.9887C189.428 87.3645 181.245 87.1688 177.049 83.5714C174.847 81.6826 174.856 78.3028 174.79 75.187L182.33 75.5498L183.171 79.0615C183.348 79.8003 185.182 80.3412 186.011 79.9322C187.399 79.2506 187.912 76.7724 187.5 75.5036C185.805 70.2923 173.978 72.1767 175.136 59.2164C175.599 54.0358 178.747 50.1745 184.399 50.0558C187.182 49.9964 190.56 50.4362 192.477 52.413C194.494 54.4954 195.19 57.642 195.218 60.9183L187.812 60.7622L187.057 57.255C186.919 56.6129 185.241 56.2171 184.408 56.4216C183.357 56.6789 182.591 59.2912 182.991 60.4434C184.434 64.6213 190.729 64.2717 193.957 68.7816C196.602 72.478 197.122 79.2088 193.558 82.9865V82.9887Z" fill="var(--fill-0, #1C1C1C)"/>
<path id="Vector_3" d="M216.974 82.6611C212.881 87.3733 204.538 87.3161 200.133 83.5604C197.934 81.6848 197.824 78.2523 197.995 75.3695C200.144 75.1606 203.419 75.0727 205.077 75.5014C205.781 77.2606 206.349 80.1191 208.143 80.1675C209.913 80.2159 210.913 77.973 210.824 76.4975C210.514 71.3983 202.561 72.2581 199.412 66.0682C197.361 62.0376 197.745 55.8279 201.118 52.5801C204.625 49.2048 211.155 49.185 214.945 51.8677C217.899 53.9588 218.57 58.0664 217.985 60.9909L210.975 60.7732L209.909 56.7382C209.683 55.8807 206.968 56.4436 206.461 57.4969C203.274 64.1155 214.991 63.6802 218.151 70.4726C219.733 73.8743 219.82 79.3825 216.976 82.6589L216.974 82.6611Z" fill="var(--fill-0, #1C1C1C)"/>
<path id="Vector_4" d="M239.867 71.2114L229.956 71.2862L230.024 78.1709L240.556 78.2325V85.6098L222.069 85.623V50.8386L240.185 50.8364L240.126 58.1389L230.004 58.1411L230.024 64.2233L239.621 64.2299L239.867 71.2114Z" fill="var(--fill-0, #1C1C1C)"/>
<g id="Group">
<path id="Vector_5" d="M33.3315 33.1814L33.4016 53.9369L40.2381 54.9418C41.1571 55.0781 41.2646 58.4248 40.4224 58.6095C38.7291 58.979 35.8252 59.0493 33.7394 59.0383C36.5468 65.1249 39.3038 74.3141 43.4908 74.446C48.18 74.5933 49.961 67.691 55.0714 61.6506L56.3939 60.0872C56.7383 59.6804 58.1332 61.246 57.9775 61.8287L53.819 77.4761C63.112 75.2156 69.887 69.0917 75.0522 60.7821C78.5242 66.5784 77.3596 73.1575 71.7667 77.7246C58.6662 88.4244 41.0255 91.0081 25.1439 83.4351C11.2384 76.8032 1.09227 62.794 0.0745815 46.0098C-0.736936 32.6515 5.14328 19.5637 15.1052 10.6867C24.2249 2.55956 35.2769 -0.479319 47.4255 0.0616107C56.9444 0.4838 65.7329 4.50119 72.9357 10.7878C74.7167 12.3425 75.2431 14.6139 74.9206 16.7864L73.7757 24.4606C68.6478 17.5715 62.1952 12.061 53.9396 10.0798L58.5126 28.3087C61.524 29.9689 65.2987 30.7407 69.036 31.3652C66.1716 37.5133 59.4974 34.072 59.4623 34.6503L59.3132 37.0669C59.1114 40.3147 58.574 42.6763 55.2381 43.2634L54.1875 33.1858H33.3315V33.1814ZM28.3724 29.3136C29.1203 27.9415 30.2214 25.8811 30.4714 24.797L33.7986 10.2997C23.4244 12.3974 12.2956 23.1325 10.6791 33.6806L28.3724 29.3136ZM54.1392 28.3483C51.8845 22.8862 50.2417 19.3702 47.93 14.924C46.5438 14.1016 44.7103 13.0175 43.5719 13.0021C39.6152 12.9472 36.4372 22.6091 33.7942 28.4076L54.1392 28.3505V28.3483ZM28.6356 52.9078L28.6093 33.353L16.7589 39.1009C15.4408 39.7408 13.7256 41.5197 13.4866 42.7357C12.5412 47.5513 21.0249 52.4416 28.6334 52.9078H28.6356ZM33.7635 76.9264L29.8573 60.4126C29.3199 59.6606 27.789 58.0268 26.7713 57.7784L10.5651 53.8467C13.0369 64.2937 23.0449 75.9413 33.7635 76.9264Z" fill="var(--fill-0, #1C1C1C)"/>
<path id="Vector_6" d="M97.3997 88C88.258 86.1221 81.3865 85.7505 72.3654 87.9978C72.9116 86.1441 73.7077 84.7654 74.6333 83.4527C79.169 79.9498 80.1165 75.0045 79.7196 69.67L77.9035 45.2138L44.9822 64.0782C43.1947 61.7473 43.7518 58.0576 46.092 56.072L70.7161 35.189C72.7471 33.4651 76.6117 30.7978 76.9516 28.1173L79.0857 11.1814C79.4125 8.5933 80.871 3.85247 84.2004 3.87886C87.168 3.90085 88.6287 8.789 88.9643 11.2716L91.1422 27.4445C91.355 29.0277 93.0899 31.4641 94.4234 32.5877L120.653 54.6889C123.605 57.178 125.573 60.7138 123.324 64.1793L90.3241 45.194L88.212 71.218C87.883 75.2706 90.0171 79.0967 92.8376 81.909L97.4019 88H97.3997Z" fill="var(--fill-0, #1C1C1C)"/>
</g>
<g id="Group_2">
<path id="Vector_7" d="M179.683 38.6347C176.191 39.1536 173.02 39.1624 170.024 38.7952L164.372 18.1629L164.188 38.7644C161.549 39.114 158.869 39.1096 156.143 38.6699L156.116 4.37581L165.83 4.44398L171.215 24.9663L171.432 4.4L179.639 4.46377L179.685 38.6369L179.683 38.6347Z" fill="var(--fill-0, #1C1C1C)"/>
<path id="Vector_8" d="M225.683 38.0014C223.27 40.0552 213.754 40.9237 209.764 37.3725C207.878 35.6926 206.867 32.7372 206.726 29.8589C206.536 25.8877 207.979 22.6223 211.589 20.9643C208.753 19.6076 207.327 16.6919 207.343 13.6464C207.358 10.5107 209.018 7.07606 212.199 5.83808C217.241 3.87666 223.268 4.01079 226.907 8.18211C228.396 9.89065 228.953 13.3847 228.662 15.7573C228.44 17.5692 226.297 19.7527 224.132 20.9159C225.308 21.2985 227.519 22.6817 228.203 24.2341C230.164 28.6737 229.888 34.4172 225.679 37.9992L225.683 38.0014ZM220.097 17.0921L220.057 12.1181C220.053 11.5662 218.983 10.5613 218.463 10.3986C217.943 10.2359 216.462 10.9219 216.309 11.4431C215.309 14.8316 215.914 18.7302 218.41 18.9127C218.897 18.9479 220.099 17.5714 220.097 17.0921ZM219.768 33.3133C220.913 30.6681 220.932 27.1608 219.702 24.7112C219.23 23.7701 216.019 24.2539 215.872 25.3093C215.329 29.219 215.017 32.8472 217.285 34.1819C217.75 34.4568 219.546 33.8257 219.768 33.3133Z" fill="var(--fill-0, #1C1C1C)"/>
<path id="Vector_9" d="M143.663 4.54513L152.317 4.56052L152.438 29.4917C152.451 32.0622 151.002 35.7739 149.409 37.2098C147.179 39.2218 144.101 39.6396 141.086 39.7957C135.276 40.0991 130.095 36.8668 130.071 30.6087L129.968 4.48796L138.405 4.52974L138.484 30.5889C138.489 31.7345 139.778 33.5904 140.746 33.6982C142.073 33.8477 143.748 32.1941 143.744 30.7494L143.665 4.54733L143.663 4.54513Z" fill="var(--fill-0, #1C1C1C)"/>
<path id="Vector_10" d="M193.74 34.1269C195.824 34.1775 196.352 27.7941 194.804 25.5182C194.247 24.7002 192.442 24.6211 190.281 24.41L190.174 19.148L193.983 18.3938C195.262 18.1409 196.745 10.4316 192.896 10.4206C191.538 10.4162 190.783 13.0527 190.663 14.9591L182.76 15.102C183.217 12.1247 183.565 9.48606 185.291 7.77971C189.722 3.4017 197.534 3.37751 202.061 7.90065C204.329 10.1655 204.996 18.9545 199.493 21.0831C205.862 23.4007 205.41 33.1418 201.719 36.9591C198.118 40.6841 188.233 40.7962 184.826 36.9701C183.048 34.9735 182.205 31.1936 182.986 28.9243L190.937 28.9639C190.553 31.2442 190.74 34.05 193.736 34.1247L193.74 34.1269Z" fill="var(--fill-0, #1C1C1C)"/>
<path id="Vector_11" d="M249.221 28.8144C249.57 28.8034 250.952 28.9177 251.013 29.2344L251.465 31.541C251.649 32.4844 252.825 34.2017 253.808 34.2303C256.497 34.3094 257.245 28.7374 255.115 25.0631C252.742 24.6057 250.972 23.8779 250.777 22.5761C250.27 19.2228 251.981 19.2096 254.352 18.2113C256.644 17.2482 256.692 11.4431 254.319 10.6009C252.237 9.85987 251.211 12.1269 251.575 14.5479C249.263 15.19 246.285 15.234 243.422 14.9921C243.844 11.8367 244.317 8.7956 246.561 7.04528C250.945 3.62159 258.039 3.66777 262.236 7.46087C265.11 10.0556 265.706 18.7984 260.116 21.0523C266.268 23.4667 266.158 33.1286 262.256 36.9635C258.363 40.7896 249.18 40.5169 245.813 37.3307C243.732 35.3605 243.12 32.3238 243.129 28.9991L249.215 28.8122L249.221 28.8144Z" fill="var(--fill-0, #1C1C1C)"/>
<path id="Vector_12" d="M240.04 39.1162L232.445 38.8436L232.419 29.7445L239.891 29.6983L240.04 39.1162Z" fill="var(--fill-0, #1C1C1C)"/>
</g>
<path id="Vector_13" d="M165.078 79.4793L158.707 79.4859L157.706 85.6582L149.368 85.5306L156.706 50.8386L166.907 50.876L174.362 85.579L165.683 85.6582L165.08 79.4793H165.078ZM164.047 72.5043L161.746 58.704L159.494 72.4538L164.047 72.5043Z" fill="var(--fill-0, #1C1C1C)"/>
<path id="Vector_14" d="M137.925 72.2075L137.848 85.5944H129.799L129.825 50.8298C135.216 50.8474 139.772 50.6055 144.413 51.1992C149.043 51.7929 150.896 57.6112 150.855 61.6528C150.819 65.0941 149.672 68.3023 147.571 70.1889C145.2 72.3196 141.73 72.4758 137.923 72.2053L137.925 72.2075ZM141.419 58.0202L137.921 57.2946L137.883 65.7933C139.079 65.7361 140.539 65.6174 141.235 65.171C143.086 63.9814 142.494 58.2423 141.417 58.0202H141.419Z" fill="var(--fill-0, #1C1C1C)"/>
</g>
<defs>
<clipPath id="clip0_0_34">
<rect width="265" height="88" fill="white"/>
</clipPath>
</defs>
</svg>
