<svg preserveAspectRatio="none" width="100%" height="100%" overflow="visible" style="display: block;" viewBox="0 0 65.2538 42.3528" fill="none" xmlns="http://www.w3.org/2000/svg">
<path id="Vector" d="M0.371139 2.03063V2.04416L0 5.32943L0.742277 9.49945L1.36064 12.9113L2.59798 16.7022L2.8452 19.2293L3.7114 23.3994L3.34025 28.201C3.34025 28.201 2.47406 30.7281 2.47406 31.1072V34.645L3.58748 37.9303L4.45367 39.8257L5.31987 42.3528L5.96951 39.9836L6.24802 37.0455L5.96951 36.0028L4.85609 34.6763L3.55741 32.9707V31.4543L3.74267 29.5589L4.57759 27.9479V29.938L5.4125 31.0752L5.50514 32.1179L5.96891 34.2026L6.98969 35.0554L7.63934 32.3071L8.28898 33.8235V35.5291L8.75276 36.761L9.1239 37.8983L9.58767 41.4994L11.7219 41.4048V39.1302L11.0722 38.2774V37.4246L11.4434 36.761L11.6286 35.8136L12.4636 34.6763L13.02 33.539L13.2052 31.928L12.9267 30.6961L11.9059 29.6535L11.1637 28.4216V27.1897H12.8335L12.6482 25.5787L10.9784 25.3895L10.7931 23.9677L11.3495 22.8304L12.4629 22.5459L14.226 25.2942L14.0407 26.8106L14.3192 30.2224L15.2468 31.8334L15.6179 34.2972L14.4119 36.0028L14.6904 39.7938L16.3602 39.3201L17.5663 37.6145L17.4736 33.4444L18.3085 32.2125L18.4012 28.6114L17.7515 27.0004L17.6589 21.7884L16.9166 20.272L16.5455 16.0073L18.4012 19.2293L18.5871 21.883L18.6797 23.3994L19.3293 24.1575L19.5146 29.1804L20.628 30.1278L19.8857 31.2651L20.7207 31.9287L21.2771 30.4123L22.2978 30.9806L22.2052 32.5916L21.0918 33.16L20.8133 35.719L19.3287 36.8563L20.4421 37.8989L20.6274 39.7944L21.7408 39.889L21.8335 38.0882L22.6684 37.9935L23.318 38.4673L25.4522 38.278L25.5449 37.3306L23.7818 36.0041V34.1086L24.5241 33.3504L25.4516 35.4351L27.4 35.6244H28.9772L30.8328 35.056L31.204 32.5922V30.6021L30.6476 29.2756V27.9491L31.4825 25.8644L31.3899 24.1588L30.5549 22.1687L30.4623 19.7049L31.6684 18.5676V22.3585L32.1321 23.306V27.476L33.802 30.1297L34.8228 30.3189L35.8435 29.3715L38.3489 28.7079L37.9777 30.698L37.0502 31.2663V34.5835C37.0502 34.868 37.8851 35.4364 37.8851 35.4364L41.0395 36.1945H43.1737L43.916 35.2471L44.7509 33.4463L45.122 31.6454L45.8643 29.5607L46.6992 28.4234C46.6992 28.4234 47.9979 27.0969 48.2764 26.9071C48.5549 26.7172 49.761 26.4333 49.761 26.4333L50.967 24.6325L52.3589 23.1161L53.8435 21.5997L54.7711 19.515L55.1422 18.2831V14.1131L56.5341 14.7767V16.3877L57.1838 17.2405L56.9979 14.0185L55.1422 13.4501L54.4925 10.7965L53.4718 9.48471L53.1006 7.47927L54.3993 6.8157L56.8114 8.9004L58.0175 10.7959L58.3886 13.1651L58.7597 15.9133L57.8322 19.3252L56.8114 22.0735L56.5329 23.7791L56.2544 25.6745L56.1618 26.9064V28.6121L57.8316 29.844L58.8524 28.6121L61.2645 26.2429L62.8417 24.2528L63.6766 21.4099L64.0477 19.1353L64.4189 16.387L65.2538 14.6814L65.1612 12.9758L63.9551 10.9857L62.6564 8.90102L60.6154 6.43722L59.0383 4.44713L57.0899 2.36242L55.2342 0.372324V0C47.5004 6.71064 37.4833 10.7596 26.5404 10.7596C16.7518 10.7596 7.7043 7.51981 0.368734 2.03309L0.371139 2.03063Z" fill="var(--fill-0, #006A4E)"/>
</svg>
