<svg preserveAspectRatio="xMidYMid meet" style="display: block;" viewBox="0 0 107.744 87.9828" fill="none" xmlns="http://www.w3.org/2000/svg">
<g id="Group 2085665484">
<path id="Vector" d="M69.5641 16.1634C65.3337 9.83213 62.7683 8.34496 55.7333 5.43099C48.6984 2.51702 40.9573 1.75459 33.489 3.24012C26.0208 4.72565 19.1607 8.39242 13.7764 13.7767C8.39208 19.1611 4.72532 26.0211 3.23979 33.4894C1.75425 40.9576 2.51668 48.6987 5.43066 55.7337C8.34463 62.7686 13.2793 68.7815 19.6106 73.0119C25.9419 77.2424 33.3854 79.5003 41 79.5003M5.06668 28.167H68.6807M5.06668 53.8337H41" stroke="var(--stroke-0, #9FA5AB)" stroke-width="5" stroke-linecap="round" stroke-linejoin="round"/>
<path id="Vector_2" d="M39.1952 2.50034C31.9886 14.0487 28.168 27.3879 28.168 41.0003C28.168 54.6128 31.9886 67.952 39.1952 79.5003M43.1393 2.50034C50.4928 14.2856 53.8338 27.6366 53.8338 41.0003" stroke="var(--stroke-0, #9FA5AB)" stroke-width="5" stroke-linecap="round" stroke-linejoin="round"/>
<path id="Vector_3" d="M107.744 65.2452L107.744 56.7452L73.6973 37.6712L73.6973 15.7327C73.6973 15.7327 73.6973 2.98275 67.7441 2.98275C61.7867 2.98275 61.7867 15.7327 61.7867 15.7327L61.7867 37.6712L27.7441 56.7453L27.7441 65.2453L61.7867 54.6712L61.7867 69.916L53.2718 79.4828L53.2718 87.9828L67.7399 81.1785L82.2122 87.9827L82.2122 79.4827L73.6973 69.916L73.6973 54.6712L107.744 65.2452Z" fill="var(--fill-0, #9FA5AB)"/>
</g>
</svg>
