<svg preserveAspectRatio="xMidYMid meet" style="display: block;" viewBox="0 0 60 50" fill="none" xmlns="http://www.w3.org/2000/svg">
<g id="Image">
<path id="Vector" d="M41.923 13.827V35.172L23.437 45.845L4.953 35.172V13.827L23.438 3.154L41.923 13.827Z" stroke="var(--stroke-0, #BAD9F7)" stroke-width="2"/>
<path id="Vector_2" d="M36.485 2.1875L55.97 13.4375V35.9375L36.484 47.1875L17 35.9375V13.4375L36.485 2.1875Z" fill="var(--fill-0, #BAD9F7)"/>
<g id="Group">
<path id="Vector_3" d="M45.4151 14.7314C45.4151 17.241 41.069 19.2753 35.7079 19.2753C30.3467 19.2753 26.0006 17.241 26.0006 14.7314C26.0006 12.2218 30.3466 10.1875 35.7079 10.1875C41.0691 10.1875 45.4151 12.222 45.4151 14.7314ZM45.4151 17.2126V21.7529C45.4151 24.2625 41.069 26.2969 35.7079 26.2969C30.3467 26.2969 26.0006 24.2625 26.0006 21.7529V17.2126C26.5713 18.01 27.4511 18.6893 28.6367 19.2443C30.5357 20.1332 33.047 20.6227 35.7079 20.6227C38.3687 20.6227 40.88 20.1332 42.779 19.2443C43.9645 18.6893 44.8444 18.0098 45.4151 17.2126ZM34.1129 23.6444C34.1129 23.1079 33.8592 22.673 33.5463 22.673C33.2333 22.673 32.9796 23.1079 32.9796 23.6444C32.9796 24.1808 33.2333 24.6158 33.5463 24.6158C33.8592 24.6158 34.1129 24.1808 34.1129 23.6444ZM36.2745 23.6444C36.2745 23.1079 36.0208 22.673 35.7079 22.673C35.3949 22.673 35.1412 23.1079 35.1412 23.6444C35.1412 24.1808 35.3949 24.6158 35.7079 24.6158C36.0208 24.6158 36.2745 24.1808 36.2745 23.6444ZM38.4361 23.6444C38.4361 23.1079 38.1824 22.673 37.8695 22.673C37.5565 22.673 37.3028 23.1079 37.3028 23.6444C37.3028 24.1808 37.5565 24.6158 37.8695 24.6158C38.1824 24.6158 38.4361 24.1808 38.4361 23.6444ZM45.4151 24.1579V28.6982C45.4151 31.2078 41.069 33.2421 35.7079 33.2421C30.3467 33.2421 26.0006 31.2078 26.0006 28.6982V24.1579C26.5713 24.9552 27.4511 25.6346 28.6367 26.1896C30.5357 27.0784 33.047 27.568 35.7079 27.568C38.3687 27.568 40.88 27.0784 42.779 26.1896C43.9645 25.6346 44.8444 24.9552 45.4151 24.1579ZM34.1129 30.4823C34.1129 29.9458 33.8592 29.5109 33.5463 29.5109C33.2333 29.5109 32.9796 29.9458 32.9796 30.4823C32.9796 31.0188 33.2333 31.4537 33.5463 31.4537C33.8592 31.4537 34.1129 31.0188 34.1129 30.4823ZM36.2745 30.4823C36.2745 29.9458 36.0208 29.5109 35.7079 29.5109C35.3949 29.5109 35.1412 29.9458 35.1412 30.4823C35.1412 31.0188 35.3949 31.4537 35.7079 31.4537C36.0208 31.4537 36.2745 31.0188 36.2745 30.4823ZM38.4361 30.4823C38.4361 29.9458 38.1824 29.5109 37.8695 29.5109C37.5565 29.5109 37.3028 29.9458 37.3028 30.4823C37.3028 31.0188 37.5565 31.4537 37.8695 31.4537C38.1824 31.4537 38.4361 31.0188 38.4361 30.4823ZM45.4151 31.1033V35.6436C45.4151 38.1532 41.069 40.1875 35.7079 40.1875C30.3467 40.1875 26.0006 38.1532 26.0006 35.6436V31.1033C26.5713 31.9006 27.4511 32.58 28.6367 33.135C30.5357 34.0238 33.047 34.5134 35.7079 34.5134C38.3687 34.5134 40.88 34.0238 42.779 33.135C43.9645 32.58 44.8444 31.9006 45.4151 31.1033ZM34.1129 37.3201C34.1129 36.7836 33.8592 36.3487 33.5463 36.3487C33.2333 36.3487 32.9796 36.7836 32.9796 37.3201C32.9796 37.8566 33.2333 38.2915 33.5463 38.2915C33.8592 38.2915 34.1129 37.8567 34.1129 37.3201ZM36.2745 37.3201C36.2745 36.7836 36.0208 36.3487 35.7079 36.3487C35.3949 36.3487 35.1412 36.7836 35.1412 37.3201C35.1412 37.8566 35.3949 38.2915 35.7079 38.2915C36.0208 38.2915 36.2745 37.8567 36.2745 37.3201ZM38.4361 37.3201C38.4361 36.7836 38.1824 36.3487 37.8695 36.3487C37.5565 36.3487 37.3028 36.7836 37.3028 37.3201C37.3028 37.8566 37.5565 38.2915 37.8695 38.2915C38.1824 38.2917 38.4361 37.8567 38.4361 37.3201Z" fill="var(--fill-0, #19323F)"/>
</g>
</g>
</svg>
