<svg preserveAspectRatio="none" width="100%" height="100%" overflow="visible" style="display: block;" viewBox="0 0 163.143 214" fill="none" xmlns="http://www.w3.org/2000/svg">
<g id="Group 2085665485">
<path id="Vector" d="M120.975 151.168L120.879 151.106L120.767 151.096C120.519 151.073 120.202 150.984 119.867 150.89C118.88 150.612 117.527 150.232 116.191 151.051C114.74 151.939 113.632 154.049 112.805 157.503L112.79 161.129L113.694 158.903C114.083 157.944 115.408 155.467 116.865 155.467H116.88C118.014 155.479 119.194 157.003 120.287 159.873L120.388 160.137L120.657 160.178C122.013 160.379 123.568 159.227 124.135 157.612C124.512 156.542 124.956 153.773 120.975 151.17V151.168ZM123.253 157.273C122.84 158.449 121.84 159.171 121.048 159.216C119.796 156.05 118.434 154.502 116.888 154.485H116.864C115.751 154.485 114.811 155.333 114.117 156.252C114.81 153.971 115.665 152.509 116.667 151.895C117.664 151.286 118.704 151.577 119.622 151.835C119.954 151.929 120.268 152.017 120.565 152.058C122.894 153.612 123.874 155.509 123.253 157.273Z" fill="var(--fill-0, #9A9AE5)"/>
<path id="Vector_2" d="M106.839 64.1813C106.866 64.1836 106.908 64.1889 106.922 64.1897C106.91 64.1874 106.897 64.1844 106.884 64.1828C106.931 64.1897 106.933 64.1905 106.922 64.1897C106.968 64.1973 107.015 64.2049 107.061 64.2148C107.169 64.2377 107.276 64.2658 107.382 64.2993C107.466 64.3267 107.549 64.3587 107.632 64.3922C107.618 64.3861 107.618 64.3853 107.669 64.4059C107.656 64.4006 107.644 64.3967 107.632 64.3922C107.651 64.4013 107.704 64.4249 107.713 64.4287C107.759 64.4516 107.804 64.4752 107.849 64.4995C107.939 64.549 108.028 64.6023 108.114 64.6594C108.157 64.6875 108.2 64.7172 108.241 64.7477C108.252 64.7553 108.325 64.8116 108.348 64.8291C108.372 64.8497 108.416 64.8877 108.424 64.8946C108.469 64.9349 108.514 64.976 108.558 65.0187C108.632 65.0917 108.705 65.1671 108.774 65.2455C108.836 65.3155 108.895 65.3886 108.951 65.4632C108.939 65.4449 108.937 65.4404 108.972 65.4898C108.966 65.4807 108.958 65.4723 108.951 65.4632C108.966 65.4837 108.994 65.5233 109.002 65.5355C109.031 65.5789 109.059 65.623 109.087 65.668C109.147 65.7646 109.203 65.8644 109.255 65.9656C109.279 66.0128 109.301 66.06 109.323 66.1079C109.331 66.1239 109.358 66.1901 109.368 66.213C109.364 66.2016 109.361 66.1894 109.356 66.178C109.375 66.2282 109.375 66.2267 109.368 66.213C109.437 66.3987 109.495 66.589 109.535 66.7839C109.546 66.8357 109.554 66.8882 109.564 66.9399C109.566 66.9514 109.567 66.9567 109.569 66.9635C109.585 67.0412 109.565 66.8943 109.569 66.9635C109.569 66.9696 109.569 66.9749 109.57 66.9856C109.579 67.1097 109.587 67.2322 109.587 67.3571C109.587 67.6806 109.861 67.9912 110.182 67.9759C110.504 67.9607 110.776 67.7042 110.776 67.3571C110.777 65.0955 108.98 63.1385 106.839 62.9428C106.528 62.9147 106.231 63.2481 106.245 63.5617C106.26 63.9218 106.506 64.1501 106.839 64.1806V64.1813Z" fill="var(--fill-0, #9A9AE5)"/>
<path id="Vector_3" d="M105.237 63.4446C105.908 63.4446 105.909 62.4375 105.237 62.4375C104.566 62.4375 104.566 63.4446 105.237 63.4446Z" fill="var(--fill-0, #9A9AE5)"/>
<path id="Vector_4" d="M110.855 167.189C109.989 165.373 108.965 163.236 107.553 161.633C107.614 161.825 107.679 162.016 107.739 162.209C107.988 162.304 108.172 162.548 108.063 162.882C107.492 164.633 106.778 166.877 107.679 168.599C107.821 168.871 108 169.132 108.231 169.375C108.957 170.137 109.841 170.127 110.817 170.142C111.056 170.145 111.291 170.162 111.521 170.193C111.633 169.825 111.727 169.448 111.783 169.055C111.497 168.535 111.192 167.896 110.871 167.224C110.866 167.213 110.86 167.202 110.855 167.191V167.189Z" fill="var(--fill-0, #9A9AE5)"/>
<path id="Vector_5" d="M107.855 170.663C107.254 170.242 106.802 169.669 106.478 169.034C106.418 168.917 106.354 168.8 106.303 168.679C105.509 166.782 106.068 164.745 106.704 162.877C106.635 162.813 106.578 162.731 106.543 162.625C106.256 161.763 105.959 160.903 105.653 160.048C104.54 159.379 103.245 159.014 101.713 159.14C102.458 160.751 104.335 165.298 104.163 169.833C104.094 171.635 103.703 173.435 102.787 175.049C104.733 175.48 106.944 175.126 108.695 174.07C109.817 173.394 110.691 172.472 111.28 171.381C111.05 171.365 110.814 171.361 110.571 171.359C109.59 171.352 108.665 171.228 107.855 170.662V170.663Z" fill="var(--fill-0, #9A9AE5)"/>
<path id="Vector_6" d="M56.6057 173.782C58.5296 173.843 60.4755 180.629 61.3838 180.125C61.4771 179.979 61.555 179.857 61.6484 179.711C61.9702 176.301 62.0173 172.87 61.802 169.456C61.4904 164.516 60.6239 159.612 59.2005 154.867C58.6508 153.032 58.0137 151.394 56.5777 150.075C55.4828 149.069 54.2783 148.057 54.135 146.473C54.0189 145.193 54.6134 143.972 55.2013 142.876C55.4578 142.397 55.801 141.867 56.0765 141.314C55.9222 141.26 55.7958 141.133 55.7554 140.914C55.5901 140.017 55.8179 139.307 56.2559 138.719C55.712 137.965 54.5193 137.701 53.7095 137.351C52.3155 136.75 51.5556 135.663 51.5982 134.12C51.6203 133.327 51.8025 132.54 51.7716 131.744C51.74 130.943 51.3388 130.402 50.8104 129.837C49.958 128.926 48.7866 127.805 49.4774 126.45C49.8272 125.764 50.5282 125.489 51.025 124.946C51.596 124.322 51.2668 123.497 50.8068 122.905C49.8213 121.639 48.0664 121.298 47.0023 120.096C46.6231 119.668 46.3813 119.185 46.2292 118.675C46.1763 118.497 46.1359 118.317 46.1036 118.133C45.9926 117.497 45.9933 116.832 46.0433 116.174C46.0602 115.952 46.0903 115.713 46.1219 115.468C46.1388 115.341 46.1543 115.212 46.1712 115.081C46.1932 114.905 46.2131 114.727 46.23 114.549C46.2417 114.428 46.2513 114.309 46.2579 114.188C46.2748 113.883 46.274 113.581 46.2366 113.292C46.2057 113.052 46.1396 112.826 46.0506 112.61C46.0235 112.544 46.0036 112.474 45.9698 112.411C45.3305 111.217 43.5403 111.534 42.5585 110.764C42.0022 110.327 41.7575 109.659 41.8494 108.963C41.9522 108.186 42.4784 107.533 42.5673 106.76C42.729 105.355 40.4634 104.771 39.7182 103.887C39.2134 103.289 38.857 102.432 38.962 101.683C37.5834 101.687 36.2048 101.337 35.1135 100.462C33.6423 99.2832 33.3696 97.39 32.382 95.8837C31.1503 94.0052 29.0721 94.6532 27.3841 95.4637C26.4626 95.9065 25.5601 96.3801 24.6217 96.7325C23.9934 100.627 21.228 104.188 21.228 104.188C21.228 104.188 19.9288 106.1 19.1902 108.402C19.1535 108.517 19.1336 108.638 19.1336 108.759V108.762C19.1336 109.898 19.163 111.028 19.2211 112.149C19.2975 113.621 20.1882 114.938 21.544 115.511C21.5551 115.516 21.5661 115.521 21.5771 115.525C23.4062 116.287 24.5541 116.974 25.2427 117.6C25.9136 118.146 26.9961 119.443 25.2434 121.281C22.9741 125.118 24.5453 128.083 26.1164 128.606C33.0992 127.037 32.7501 130.001 32.925 130.874C28.0367 137.153 30.3067 140.292 31.8778 143.606C31.711 144.773 31.6243 145.855 31.592 146.869C31.3847 153.287 33.5445 156.751 34.1471 158.257C35.8932 163.315 34.4962 173.081 34.4962 173.081C34.4962 173.081 34.3977 178.648 34.5998 182.166C34.6865 183.677 35.7367 184.98 37.2072 185.331C38.3616 185.608 38.7225 185.067 38.7225 183.229C37.5864 182.905 36.2878 180.959 36.7743 178.526C39.9541 176.747 41.1409 183.333 41.5054 186.266C41.6208 187.194 42.4409 187.892 43.372 187.81C44.6015 187.701 43.9717 186.496 43.4235 183.823C43.1354 182.419 43.4727 180.947 44.3781 179.835C46.1043 177.714 46.5629 180.744 46.0271 183.554C50.0851 185.986 49.4355 182.094 49.7603 177.066C51.7084 170.742 53.6559 173.985 53.6559 173.985C53.6559 173.985 52.6851 180.288 52.6322 182.73C52.619 183.351 52.9166 183.948 53.4442 184.275C56.0611 185.895 56.7541 176.757 56.6057 173.784V173.782Z" fill="var(--fill-0, #9A9AE5)"/>
<path id="Vector_7" d="M162.296 191.479C160.718 187.895 159.145 180.626 159.005 168.964C158.872 157.779 156.429 150.199 154.925 144.611C154.365 142.532 153.496 140.542 152.304 138.747C149.171 134.032 149.009 130.975 149.114 129.775C149.171 129.114 149.227 128.453 149.244 127.79L149.534 117.027C149.1 114.751 148.636 113.078 148.149 111.831C146.622 107.921 144.859 108.251 143.001 107.703C142.185 109.415 136.959 109.887 135.816 110.536C135.94 113.877 135.803 115.778 135.441 116.978C135.408 117.089 135.373 117.194 135.335 117.293C135.285 117.428 135.232 117.554 135.174 117.671C135.1 117.82 135.021 117.956 134.936 118.081C134.281 119.046 133.299 119.358 132.059 120.436C126.67 124.656 129.446 125.954 129.446 127.09C132.549 132.933 126.833 136.017 125.2 136.666C121.281 139.1 119.321 131.635 119.157 128.876C117.361 122.546 116.544 126.441 116.871 131.148C115.728 137.478 113.279 132.122 113.279 132.122C113.279 132.122 112.462 124.981 112.625 121.735C111.578 120.478 110.783 119.363 110.162 118.334C110.047 118.142 109.933 117.951 109.83 117.765C108.471 115.32 108.139 113.356 107.918 111.147C107.908 111.051 107.898 110.957 107.889 110.86C108.067 110.698 108.238 110.485 108.403 110.23C108.527 110.037 108.647 109.82 108.763 109.582C108.905 109.293 109.039 108.973 109.168 108.629C109.245 108.422 109.32 108.206 109.392 107.983C109.533 107.545 109.664 107.079 109.784 106.595C110.424 104.025 110.758 100.961 110.665 99.0114C114.094 99.8226 113.931 99.1734 115.075 98.2003C114.652 96.7825 114.66 95.7939 114.859 95.0991C114.84 95.0689 114.822 95.0387 114.802 95.0093C114.336 94.3217 113.88 94.3321 113.215 94.7516C112.697 95.0792 112.21 95.5157 111.583 95.6143C110.945 95.7152 110.346 95.367 110.078 94.7899C109.81 94.2135 109.949 93.5746 109.979 92.9673C109.991 92.7171 110.048 92.3814 109.774 92.2894C109.431 92.1746 108.87 92.5868 108.553 92.72C107.892 92.996 107.18 93.0763 106.472 92.982C105.471 92.8495 104.525 92.3704 103.841 91.6423C103.595 91.8426 103.335 92.0295 103.068 92.2033C102.082 92.8422 100.932 93.2956 100.077 94.1171C99.6501 94.5279 99.2346 95.0645 99.0328 95.6372C98.8428 96.1775 98.842 96.7501 99.208 97.2801C99.3211 97.4443 99.3115 97.6629 99.2243 97.8432L98.9914 97.487L99.1932 97.9007C99.1149 98.0287 98.9958 98.1303 98.848 98.1598C98.7659 98.1767 98.686 98.1995 98.6054 98.2201C98.5027 98.2466 98.4014 98.2768 98.3016 98.3107C98.1751 98.3534 98.0517 98.4005 97.9297 98.4535C97.1607 98.7877 96.4983 99.3213 96.0066 99.9831C95.9098 100.114 95.8173 100.248 95.7345 100.388C95.6007 100.612 95.4861 100.849 95.3922 101.094C95.3109 101.305 95.2473 101.524 95.1978 101.748C95.1283 102.063 95.0883 102.388 95.0898 102.72C95.092 103.304 94.2573 103.549 93.969 103.022C93.3819 101.948 92.644 100.52 91.2844 100.358C91.2541 100.354 91.2245 100.347 91.1934 100.345C91.1143 100.339 91.0345 100.339 90.9561 100.343C90.7572 100.353 90.5665 100.398 90.3949 100.476C90.287 100.526 90.1886 100.59 90.1007 100.669C89.9654 100.791 89.8552 100.946 89.7916 101.145C89.5986 101.748 89.762 102.444 89.7983 103.06C89.8582 104.077 89.6408 105.117 88.7358 105.717C88.5916 105.812 88.4386 105.884 88.2826 105.945C88.1458 106 88.0046 106.044 87.8604 106.078C87.2453 106.222 86.5806 106.203 85.9632 106.188C85.2734 106.171 84.5393 106.134 83.899 106.353C83.791 106.389 83.6853 106.434 83.5833 106.487C83.3829 106.592 83.1936 106.724 83.0251 106.908C82.2192 107.786 81.8022 109.01 81.1013 109.975C80.756 110.45 80.37 110.912 79.9737 111.373C79.834 111.536 79.6928 111.699 79.5516 111.862C79.2425 112.219 78.9327 112.578 78.6363 112.945C78.4817 113.136 78.3324 113.328 78.1867 113.524C77.593 114.322 77.0873 115.166 76.8012 116.11C76.6163 116.719 76.518 117.398 76.5387 118.063C76.5439 118.237 76.5565 118.41 76.5794 118.581C76.6104 118.81 76.6585 119.033 76.7236 119.25C77.1945 119.747 77.616 120.298 77.9583 120.935C77.9686 120.955 77.976 120.975 77.9864 120.994C78.0877 121.06 78.1949 121.121 78.3087 121.175C78.7035 121.367 78.6784 121.78 78.4559 122.042C79.1989 123.959 79.4274 126.045 80.1349 127.978C80.546 129.1 81.1937 130.167 82.231 130.814C83.5448 131.634 85.1492 131.681 86.6516 131.75C88.1525 131.819 89.6741 131.897 91.0818 132.469C92.3808 132.998 93.5098 133.86 94.4628 134.878C96.5582 137.115 97.9763 139.969 99.3921 142.654C101.139 145.968 102.727 149.365 104.159 152.825C105.108 155.117 105.99 157.436 106.798 159.782C109.123 161.576 110.61 164.6 111.742 166.919C117.702 164.031 123.15 160.259 127.916 155.776C132.552 164.178 134.904 175.407 134.671 179.349C133.178 183.894 133.018 187.219 133.155 189.235C133.246 190.574 133.953 191.796 135.036 192.593C140.029 196.268 140.7 198.249 140.55 200.773C141.367 207.265 144.633 209.537 146.756 211.809C148.716 214.406 149.532 214.243 150.839 213.594C151.655 211.322 147.735 206.453 147.083 204.83C144.306 199.799 146.756 195.579 147.899 193.956C150.483 191.523 152.728 193.368 154.16 195.083C154.598 195.607 155.318 195.795 155.966 195.573C158.781 194.606 158.531 198.19 158.678 199.799C161.073 200.881 162.452 199.51 162.96 197.13C163.365 195.231 163.077 193.256 162.295 191.477L162.296 191.479ZM124.313 157.659C123.732 159.238 122.143 160.365 120.756 160.167L120.48 160.128L120.377 159.869C119.259 157.064 118.053 155.575 116.892 155.562H116.877C115.387 155.562 114.031 157.985 113.634 158.921L112.709 161.098L112.724 157.553C113.571 154.177 114.704 152.114 116.187 151.246C117.554 150.446 118.938 150.817 119.948 151.088C120.291 151.18 120.614 151.267 120.868 151.29L120.983 151.3L121.08 151.361C125.153 153.905 124.698 156.611 124.313 157.657V157.659Z" fill="var(--fill-0, #9A9AE5)"/>
<path id="Vector_8" d="M77.6227 178.353C78.4322 176.399 79.4031 174.6 80.4581 172.971C81.356 173.015 82.2598 173.037 83.1674 173.044C83.6893 172.436 84.3639 171.717 85.2751 170.81L85.668 170.418L85.999 170.863C86.0543 170.937 86.5763 171.66 87.0768 172.962C88.0057 172.914 88.928 172.843 89.8458 172.756C89.8377 173.08 89.8348 173.381 89.8348 173.647C91.9307 174.005 93.4523 173.242 94.5404 172.137C97.5785 171.623 100.545 170.897 103.423 169.976C103.74 164.537 100.953 158.791 100.915 158.715L100.632 158.141L101.263 158.032C102.842 157.756 104.198 157.959 105.376 158.473C105.238 158.085 105.105 157.695 104.962 157.307C104.089 154.931 103.136 152.585 102.113 150.27C101.675 149.278 101.228 148.29 100.763 147.311C99.2859 144.2 97.7245 141.081 95.9013 138.155C94.3583 135.679 92.3568 133.329 89.3334 132.807C86.4878 132.317 83.2846 132.986 80.9867 130.811C79.1731 129.095 78.8052 126.445 78.2272 124.142C77.998 123.23 77.737 122.313 77.3271 121.465C76.6769 120.973 76.2294 120.311 75.9566 119.563C75.5438 119.161 75.0889 118.801 74.6104 118.485C74.4888 118.405 74.3642 118.333 74.2404 118.256C73.9344 118.068 73.6233 117.888 73.3063 117.721C72.9569 117.536 72.6015 117.361 72.2418 117.194C72.1371 117.146 72.0317 117.098 71.9262 117.05C71.6299 116.917 71.332 116.786 71.0327 116.658C70.9214 116.611 70.8101 116.564 70.698 116.517C70.0102 116.229 69.3202 115.947 68.6412 115.648C67.7042 115.236 66.7502 114.783 65.8803 114.218C65.7955 114.163 65.7137 114.105 65.6304 114.047C65.4424 113.916 65.1453 113.689 64.9669 113.545C64.9448 113.527 64.9227 113.509 64.9013 113.491C64.4862 113.137 64.1029 112.747 63.7741 112.302C63.1968 111.519 62.8467 110.6 62.7265 109.636C62.7198 109.58 62.7206 109.525 62.7154 109.469C62.7044 109.348 62.6948 109.228 62.6911 109.108C62.6815 108.802 62.6933 108.497 62.7184 108.193C62.7737 107.522 62.8842 106.852 62.9565 106.182C62.9904 105.871 63.0177 105.559 63.0221 105.247C63.0251 105.035 63.0192 104.823 63.0007 104.611C62.9882 104.463 62.9624 104.321 62.9344 104.182C62.425 101.657 59.4953 100.584 57.3463 99.7352C54.9311 98.7813 51.9439 97.179 51.4625 94.3401C51.0386 91.8421 53.0313 90.3296 55.0911 89.5133C56.9268 88.7854 59.8196 88.2694 60.2487 85.9488C60.5075 84.5518 59.667 83.1615 58.9748 82.0192C58.211 80.7584 57.3411 79.5329 56.8435 78.1337C55.922 75.5407 56.4306 72.4745 58.0702 70.2767C58.9136 69.1462 60.2281 68.4654 61.036 67.3267C61.6066 66.5223 61.6125 65.5978 61.1164 64.7647C60.0445 62.9644 58.0083 61.875 56.6651 60.2926C55.9315 59.4278 55.3595 58.4503 55.2083 57.311C55.0004 55.7411 55.5578 54.2271 55.9949 52.7447C56.2412 51.9115 56.4601 51.0695 56.4727 50.1959C56.4734 50.1333 56.4675 50.0708 56.4668 50.0082C56.4572 49.1971 56.3171 48.397 56.1638 47.6021C55.8586 46.0197 55.5873 44.48 55.846 42.8703C56.3009 40.0359 58.1277 37.4782 60.6527 36.1136C61.3553 35.7338 61.9782 36.8526 61.1835 37.1823C60.8186 37.3339 60.4831 37.5503 60.1728 37.7947C58.3312 39.2483 57.0403 41.5462 56.9297 43.9441C56.8501 45.6738 57.4133 47.3401 57.6065 49.0455C57.6227 49.1912 57.6294 49.3347 57.6375 49.4783C57.7215 50.9996 57.3477 52.4061 56.9047 53.8716C56.48 55.2766 56.0406 56.8075 56.7005 58.2141C58.1218 61.2413 65.006 63.9859 61.9649 68.0738C61.1238 69.2043 59.8285 69.8785 58.9976 71.026C58.1749 72.1617 57.6839 73.5476 57.6036 74.946C57.5217 76.3673 57.8483 77.6965 58.5214 78.9463C59.2217 80.2476 60.116 81.4392 60.7633 82.7699C61.339 83.9549 61.7246 85.3003 61.3184 86.6024C60.9896 87.6563 60.2502 88.4726 59.3227 89.0474C57.5431 90.15 55.1737 90.2942 53.5769 91.689C51.147 93.8117 53.8106 96.6086 55.8202 97.7472C58.1071 99.0433 60.882 99.4599 62.7692 101.429C63.3303 102.015 63.7254 102.695 63.9606 103.434C64.0483 103.71 64.1117 103.993 64.1537 104.284C64.1692 104.39 64.184 104.496 64.1936 104.605C64.2061 104.749 64.2149 104.893 64.2164 105.04C64.2208 105.52 64.1677 106.002 64.1036 106.483C64.0638 106.784 64.0203 107.085 63.9798 107.385C63.9576 107.549 63.9399 107.711 63.9223 107.874C63.8515 108.539 63.8294 109.203 63.9702 109.864C64.1891 110.889 64.745 111.699 65.4616 112.369C65.5213 112.425 65.5817 112.48 65.6437 112.535C65.7985 112.669 65.9592 112.797 66.1258 112.92C66.2172 112.988 66.3079 113.056 66.4023 113.12C66.7569 113.361 67.1277 113.582 67.5059 113.784C68.6065 114.369 69.8207 114.86 71.0386 115.366C71.1507 115.412 71.262 115.459 71.3741 115.507C71.6645 115.628 71.9543 115.752 72.2425 115.879C72.3472 115.925 72.4519 115.97 72.5558 116.017C73.6358 116.502 74.6812 117.039 75.6138 117.707C75.591 116.881 75.7163 116.048 75.961 115.299C76.5081 113.628 77.6249 112.289 78.7544 110.959C78.9018 110.786 79.05 110.612 79.1967 110.438C79.4967 110.082 79.7909 109.724 80.0718 109.359C80.2177 109.169 80.3608 108.977 80.4971 108.781C80.593 108.643 80.6866 108.505 80.7765 108.364C81.4799 107.263 81.9303 105.899 83.0877 105.169C83.2182 105.087 83.3531 105.018 83.491 104.959C83.5942 104.914 83.7004 104.878 83.8073 104.845C84.6455 104.583 85.5758 104.636 86.4435 104.654C87.2125 104.671 88.0404 104.653 88.4952 104.172C88.611 103.718 88.7267 103.264 88.8425 102.809C88.8056 101.684 88.5173 100.498 89.3688 99.5777C89.4838 99.4533 89.6129 99.3488 89.7478 99.2553C89.9829 99.0934 90.2424 98.9771 90.5167 98.9042C90.6914 98.8578 90.8705 98.8328 91.0519 98.8203C91.1603 98.8129 91.2686 98.807 91.3778 98.8107C91.7972 98.8254 92.2167 98.9197 92.5942 99.0875C93.3454 99.4216 93.9064 100.007 94.3723 100.668C94.5117 100.226 94.7026 99.8021 94.94 99.4062C95.0203 99.2729 95.1044 99.1419 95.1951 99.0153C95.3086 98.8556 95.4302 98.7025 95.5578 98.5553C95.6507 98.4479 95.7472 98.3434 95.8475 98.2425C96.3687 97.7199 96.985 97.2938 97.6699 97.0001C97.793 96.9479 97.9184 96.9008 98.0452 96.8573C98.0437 96.8522 98.0415 96.8478 98.04 96.8426C97.9471 96.5482 97.9073 96.2457 97.9154 95.941C97.9316 95.3478 98.1211 94.7538 98.4256 94.2157C98.4617 94.1525 98.4934 94.0869 98.5325 94.0244C99.28 92.8379 100.404 92.1394 101.593 91.4601C102.183 91.123 102.819 90.7727 103.353 90.3229C103.338 90.292 103.319 90.2648 103.305 90.2331C103.041 89.6384 103.749 89.1122 104.159 89.4015C104.182 89.3639 104.208 89.3301 104.23 89.291C104.912 88.042 104.548 86.5008 104.899 85.1583C105.537 82.7184 107.984 81.4878 109.569 79.7338C112.456 76.5395 114.426 70.9656 111.236 67.3069C110.731 66.7276 111.577 65.8783 112.084 66.4604C113.777 68.4021 114.307 70.8972 113.937 73.4092C113.595 75.7328 112.527 77.9379 111.088 79.7787C110.355 80.7157 109.509 81.5076 108.604 82.2746C107.668 83.068 106.62 83.9159 106.172 85.0979C105.644 86.4912 106.042 88.0523 105.475 89.4471C105.324 89.8195 105.117 90.1522 104.875 90.4569C105.798 91.48 107.308 91.7162 108.625 91.1127C109.389 90.7631 110.316 90.4812 110.966 91.2025C111.477 91.7707 111.343 92.5575 111.296 93.2501C111.281 93.4687 111.193 93.9567 111.451 94.0818C111.667 94.1863 112.051 93.861 112.216 93.7513C112.814 93.3524 113.423 92.8762 114.18 92.8747C114.802 92.874 115.293 93.2074 115.677 93.649C116.165 93.2118 116.695 93.15 116.695 93.15C116.695 93.15 121.417 95.4221 122.882 95.0975C123.534 91.6897 125.324 90.5533 126.79 90.0668C133.629 94.2864 133.14 91.5271 133.629 91.0406C133.466 81.4657 137.7 82.2775 138.84 82.4394C140.289 82.4394 141.321 81.8359 142.059 80.896C143.342 79.2591 143.727 76.5999 143.841 74.3197C143.914 72.8646 144.457 71.4897 145.31 70.3084C146.312 68.9217 144.923 67.4283 144.539 66.5355C142.26 61.8294 146.005 62.8032 146.005 62.8032C146.005 62.8032 150.402 65.3998 151.216 64.9126C154.961 59.5573 145.353 55.9869 141.445 55.0131C132.408 52.8514 125.176 52.7904 117.246 53.413C112.277 53.8031 107.033 54.4604 100.9 55.0396C100.877 55.2008 100.851 55.3598 100.822 55.5151C100.552 56.9783 100.07 58.7131 100.917 60.0799C101.597 61.1766 102.878 61.7212 104.138 61.5666C104.904 61.4732 104.895 62.6714 104.138 62.7642C102.879 62.9187 101.619 62.4712 100.677 61.6358C99.6294 60.7062 99.2063 59.3527 99.2542 57.9808C99.2874 57.0254 99.5248 56.0921 99.6877 55.1522C98.3437 55.2744 96.9614 55.3922 95.5253 55.5011C92.2808 55.7234 89.3519 55.808 86.7023 55.7771C86.6809 55.5813 86.6596 55.3892 86.6367 55.1846C86.3197 55.5644 86.2777 55.5114 86.3514 55.6859C86.3317 55.7143 86.3123 55.743 86.2932 55.772C71.1212 55.5225 65.3687 51.3993 63.1496 47.346C61.5794 44.4777 61.7769 41.6455 61.6553 40.2471C61.9812 24.1813 61.0036 20.2862 60.3526 18.6633C57.7473 12.9835 54.9791 14.931 54.4328 18.6633C54.5382 23.0448 53.0247 23.0448 51.3969 24.0186C46.0233 25.4789 41.6266 20.1236 39.6729 18.1761C36.7417 17.8515 37.0676 11.847 36.5788 9.08844C32.6708 3.57049 29.4138 8.11468 29.0887 9.89953C30.8801 16.5531 27.6231 14.2811 27.6231 14.2811C27.6231 14.2811 24.3661 12.3335 21.1098 8.76311C14.4424 4.87178 14.4424 3.24885 14.4424 0.00300652C9.23169 -0.159654 10.0456 6.33204 10.0456 6.33204C16.2736 5.21918 15.2009 10.9351 16.0768 11.1095C9.05476 11.4621 10.6479 14.6005 8.72153 16.3456C2.06666 17.2185 5.21901 20.7087 4.86883 22.4546C4.14636 23.2281 3.58754 23.9487 3.16217 24.6207C1.28963 27.578 3.12236 31.4951 6.59024 32.0044C11.8053 32.7699 13.8754 37.6225 15.2017 39.3852C15.6617 40.5562 16.3001 41.4004 17.0086 42.0047C18.7536 43.4922 21.2727 43.6129 23.2904 42.5221C27.3186 40.345 27.4609 43.0506 27.4609 43.0506C27.4609 43.0506 27.4609 43.8757 27.4955 45.0805C27.5413 46.6946 28.6213 48.1107 30.1798 48.5435C34.3878 49.7116 32.0692 52.3495 31.3143 52.6505C27.8118 56.3159 25.3598 54.9197 22.5577 54.0467C13.4537 51.6186 12.9871 53.6817 13.3896 55.9891C13.7014 57.7761 13.6852 59.6066 13.2908 61.3775C11.8267 67.9516 9.57818 64.3834 8.02118 63.2978C4.69337 60.8542 3.46811 63.4722 3.46811 63.4722C3.46811 63.4722 4.51865 68.1849 1.71648 69.7556C-1.37983 72.9654 0.341571 75.3015 1.98631 76.7647C2.89603 77.5743 3.72024 78.4774 4.39406 79.4917C7.9504 84.8492 16.9614 87.4363 19.2298 88.0818C20.3091 88.4917 21.1931 88.9738 21.9148 89.5096C21.2963 91.5131 20.7721 93.5585 20.3489 95.64C21.7954 95.9771 23.2764 95.8019 24.6853 95.1858C24.7184 95.1711 24.7531 95.1608 24.7863 95.1453C26.5084 94.3652 28.3271 93.0948 30.3014 93.1927C32.1916 93.2869 33.3056 94.6721 34.0199 96.2759C34.3775 97.0796 34.6842 97.9334 35.2083 98.6495C35.7752 99.4246 36.6245 99.8927 37.5468 100.115C39.7319 100.64 41.892 99.7565 43.8419 98.8453C45.5117 98.0644 47.9172 96.5188 49.6335 98.0026C50.7636 98.98 50.8757 101.038 52.5661 101.307C55.0358 101.7 58.4064 99.0639 60.4168 101.493C60.9048 102.082 60.0607 102.934 59.569 102.339C58.556 101.116 56.6636 101.867 55.3823 102.176C53.8651 102.542 52.0774 102.882 50.7843 101.759C50.1429 101.202 49.8281 100.404 49.4219 99.6814C48.8653 98.6908 48.1288 98.3971 47.0127 98.746C45.8781 99.1 44.8194 99.7219 43.7365 100.205C42.6904 100.671 41.614 101.106 40.4824 101.316C40.4308 101.326 40.377 101.33 40.3254 101.339C39.8469 101.68 40.2723 102.461 40.5539 102.818C41.0051 103.39 41.7452 103.684 42.3262 104.103C42.8894 104.509 43.4276 104.997 43.6561 105.673C43.8979 106.39 43.707 107.099 43.4268 107.773C43.1828 108.359 42.683 109.22 43.3892 109.673C43.9304 110.02 44.6595 110.048 45.261 110.248C45.8884 110.457 46.4487 110.785 46.8424 111.327C46.9869 111.525 47.0908 111.74 47.1763 111.961C47.256 112.167 47.3201 112.377 47.3599 112.596C47.4012 112.826 47.4196 113.062 47.4277 113.299C47.4314 113.413 47.4351 113.527 47.4336 113.642C47.4314 113.793 47.4262 113.945 47.4167 114.096C47.4093 114.219 47.4004 114.344 47.3901 114.466C47.3769 114.626 47.3614 114.783 47.3466 114.938C47.2655 115.777 47.1159 116.754 47.2567 117.641C47.3017 117.923 47.3695 118.197 47.4867 118.453C47.5567 118.606 47.6415 118.753 47.744 118.893C48.6766 120.161 50.4334 120.498 51.4972 121.643C52.5064 122.729 53.0461 124.39 51.8975 125.585C51.4898 126.01 50.5653 126.365 50.4864 127.016C50.4142 127.613 51.0961 128.172 51.4596 128.553C51.9461 129.063 52.4489 129.584 52.7291 130.241C53.0225 130.931 53.0291 131.683 52.9613 132.418C52.892 133.17 52.6929 134.012 52.8949 134.758C53.0837 135.455 53.6447 135.817 54.2772 136.087C55.2975 136.523 56.4387 136.822 57.1509 137.678C57.95 137.065 58.9497 136.603 59.7769 136.165C60.2428 135.918 60.7124 135.643 61.0751 135.254C61.4857 134.815 61.5926 134.344 61.6686 133.763C61.7836 132.882 62.1603 132.043 63.1032 131.831C64.4855 131.519 65.7225 132.623 67.0459 132.781C67.842 132.876 68.0286 132.301 68.395 131.71C68.8004 131.056 69.6954 130.373 70.3029 131.188C71.7906 133.181 73.4103 135.057 75.2083 136.778C76.0849 137.617 76.9983 138.419 77.9427 139.181C78.576 139.691 79.5203 140.745 80.2185 139.842C80.6579 139.274 80.9019 138.573 81.4548 138.088C82.2112 137.425 83.1113 137.593 83.9466 138.019C86.184 139.161 88.5638 138.73 90.9745 138.976C95.0631 139.393 98.3776 142.553 98.9247 146.633C98.9431 146.77 98.918 146.881 98.8664 146.968C98.6305 147.367 97.8085 147.25 97.7252 146.633C97.6751 146.261 97.591 145.896 97.4819 145.539C96.8332 143.414 95.1892 141.598 93.1486 140.722C93.0085 140.662 92.8677 140.609 92.7254 140.56C92.0707 140.333 91.3984 140.215 90.7172 140.154C88.9479 139.994 87.1159 140.206 85.3694 139.834C84.7199 139.695 84.1125 139.457 83.5249 139.152C83.0627 138.912 82.6004 138.637 82.1765 139.055C81.6015 139.622 81.3936 140.467 80.7648 141.002C79.8182 141.805 78.7514 141.315 77.8889 140.652C76.8007 139.817 75.7524 138.928 74.7498 137.993C72.8315 136.203 71.0969 134.231 69.5281 132.13C69.3777 132.308 69.2582 132.621 69.1853 132.748C68.9987 133.072 68.7886 133.379 68.4849 133.604C67.9681 133.986 67.3459 134.04 66.7266 133.936C66.0705 133.825 65.4571 133.549 64.8371 133.318C64.4147 133.159 63.7446 132.835 63.2853 133.021C62.997 133.138 62.9241 133.452 62.8725 133.734C62.784 134.215 62.7737 134.674 62.5761 135.13C62.2318 135.929 61.558 136.505 60.8281 136.948C60.0651 137.411 58.5804 137.904 57.6773 138.686C57.9331 139.64 57.6249 140.631 57.2077 141.523C56.6607 142.695 55.8674 143.772 55.5025 145.023C55.0469 146.584 55.8954 147.618 57.0079 148.625C57.5844 149.146 58.1557 149.66 58.6217 150.286C59.1738 151.026 59.5572 151.873 59.8757 152.736C60.5642 154.602 61.0559 156.56 61.5012 158.497C61.8617 160.066 62.1618 161.648 62.4065 163.236C62.7368 165.382 62.9587 167.541 63.0767 169.706C64.139 170.063 65.2139 170.391 66.3005 170.693C66.2828 171.197 66.2585 171.698 66.2261 172.19C64.9234 175.76 68.9943 175.111 70.4599 174.462C68.9943 183.063 76.8103 181.277 77.6249 178.357L77.6227 178.353ZM106.894 62.9062C109.053 63.0954 110.865 64.9877 110.864 67.1744C110.864 67.51 110.59 67.7588 110.265 67.7728C109.941 67.7875 109.664 67.4872 109.665 67.1744C109.665 67.0537 109.657 66.9352 109.648 66.8152C109.648 66.8049 109.648 66.8005 109.647 66.7939C109.645 66.7872 109.644 66.7821 109.642 66.771C109.632 66.721 109.624 66.6702 109.613 66.6202C109.572 66.4317 109.514 66.2477 109.444 66.0681C109.434 66.0461 109.406 65.982 109.399 65.9666C109.377 65.9202 109.354 65.8746 109.33 65.8289C109.277 65.7303 109.221 65.6346 109.161 65.5412C109.133 65.4977 109.104 65.455 109.075 65.4131C109.067 65.4013 109.039 65.363 109.024 65.3432C108.966 65.271 108.907 65.2004 108.845 65.1327C108.775 65.0569 108.703 64.9833 108.627 64.9133C108.583 64.8721 108.538 64.8324 108.492 64.7934C108.484 64.7867 108.44 64.7499 108.416 64.7301C108.392 64.7131 108.318 64.6587 108.308 64.6513C108.266 64.6219 108.223 64.5932 108.18 64.5659C108.093 64.5107 108.004 64.4592 107.913 64.4114C107.867 64.3878 107.821 64.3643 107.775 64.3429C107.766 64.3385 107.712 64.3164 107.693 64.3076C107.61 64.2752 107.527 64.2443 107.441 64.2178C107.335 64.1854 107.226 64.1582 107.117 64.1361C107.071 64.1265 107.024 64.1192 106.978 64.1118C106.963 64.1103 106.921 64.1059 106.894 64.1037C106.559 64.0743 106.31 63.8527 106.295 63.5053C106.281 63.2014 106.581 62.879 106.894 62.9069V62.9062ZM105.268 62.2232C106.04 62.2232 106.04 63.4207 105.268 63.4207C104.496 63.4207 104.496 62.2232 105.268 62.2232Z" fill="var(--fill-0, #9A9AE5)"/>
<path id="Vector_9" d="M120.417 152.078C120.113 152.037 119.79 151.95 119.449 151.859C118.506 151.605 117.438 151.318 116.415 151.917C115.387 152.521 114.508 153.958 113.797 156.201C114.509 155.297 115.474 154.464 116.617 154.464H116.642C118.229 154.48 119.628 156.003 120.913 159.115C121.726 159.071 122.753 158.36 123.176 157.205C123.814 155.47 122.808 153.605 120.417 152.078Z" fill="var(--fill-0, #9A9AE5)"/>
<path id="Vector_10" d="M106.748 63.9482V63.9482V63.9482Z" fill="var(--fill-0, #9A9AE5)"/>
<path id="Vector_11" d="M109.265 66.9694V66.9694Z" fill="var(--fill-0, #9A9AE5)"/>
<path id="Vector_12" d="M109.265 65.9624V65.9624V65.9624Z" fill="var(--fill-0, #9A9AE5)"/>
<path id="Vector_13" d="M108.762 65.4588V65.4588V65.4588Z" fill="var(--fill-0, #9A9AE5)"/>
<path id="Vector_14" d="M107.331 64.4517C107.472 64.4517 107.613 64.4517 107.755 64.4517C107.182 64.4517 107.19 64.4517 107.331 64.4517Z" fill="var(--fill-0, #9A9AE5)"/>
<path id="Vector_15" d="M95.8698 174.846C95.6901 176.535 94.8686 178.477 92.4792 179.967C91.7709 180.409 92.2981 181.553 93.0525 181.206C94.3509 180.609 95.7179 179.679 96.2188 178.94C96.7826 178.109 97.2309 176.484 97.1762 174.879C97.147 174.022 95.9603 173.993 95.8698 174.846Z" fill="var(--fill-0, #9A9AE5)"/>
<path id="Vector_16" d="M127.164 158.171C127.668 159.385 127.828 160.843 126.461 161.828C126.427 161.852 126.394 161.885 126.37 161.92C125.218 163.601 126.413 163.184 126.814 164.047C127.162 164.797 130.654 161.358 127.771 157.744C127.495 157.398 126.991 157.754 127.164 158.171Z" fill="var(--fill-0, #9A9AE5)"/>
<path id="Vector_17" d="M62.5606 184.259C64.5021 184.369 65.4609 184.304 65.9486 182.397C66.6211 179.764 68.4157 180.202 66.8455 177.789C65.276 175.376 65.0516 175.595 65.4997 173.84C65.6242 173.353 65.6451 172.764 65.5623 172.177C65.3536 170.698 63.0714 170.982 63.1907 172.47C63.4248 175.39 63.3979 179.759 61.6212 182.461C61.1254 183.215 61.6466 184.209 62.5606 184.26V184.259Z" fill="var(--fill-0, #9A9AE5)"/>
<path id="Vector_18" d="M50.883 182.639C50.5974 183.921 49.9725 185.381 48.6058 185.966C48.0986 186.183 48.3718 186.889 48.9236 186.802C50.729 186.518 51.9881 184.781 51.8526 182.704C51.818 182.176 50.9984 182.121 50.883 182.639Z" fill="var(--fill-0, #9A9AE5)"/>
<path id="Vector_19" d="M88.8785 175.125C88.4865 174.452 87.4573 174.716 87.4206 175.495C87.3817 176.321 87.2826 177.293 87.069 178.307C87.0176 176.115 86.5257 174.417 86.0662 173.296C85.8775 172.835 85.6947 172.468 85.5501 172.207C85.1383 172.627 84.7889 172.996 84.4805 173.333C83.6488 174.244 83.1555 174.893 82.8061 175.484L81.6814 173.951C81.274 173.395 80.3975 173.724 80.4569 174.412C80.7029 177.25 80.4026 181.476 76.807 182.945C76.7387 182.973 76.6859 183.028 76.6668 183.099C76.5119 183.666 75.9855 186.169 79.1282 184.984C80.3564 184.521 81.2101 184.059 81.8025 183.652C81.8561 183.707 81.9119 183.758 81.9714 183.804C82.6578 184.335 83.6716 184.283 84.6017 184.059C84.7074 184.371 85.0025 184.62 85.3879 184.604C89.0261 184.452 91.8685 180.26 88.8785 175.126V175.125Z" fill="var(--fill-0, #9A9AE5)"/>
<path id="Vector_20" d="M91.1007 181.847L90.907 181.803C90.1984 181.642 89.5099 182.17 89.3734 182.972C88.7772 186.483 89.4382 185.736 89.4382 185.736C89.4382 185.736 90.6823 185.267 91.5115 184.564C91.5508 184.53 91.5914 184.496 91.6328 184.46C92.5212 183.691 92.198 182.094 91.1007 181.847Z" fill="var(--fill-0, #9A9AE5)"/>
<path id="Vector_21" d="M92.4254 179.109C92.5084 179.052 92.579 178.979 92.6307 178.896L94.0535 176.64C94.1939 176.417 94.1956 176.142 94.0568 175.919L93.8548 175.591C93.5839 175.152 92.9213 175.101 92.5749 175.493L91.3171 176.915C91.1775 177.073 91.1085 177.281 91.1512 177.481C91.2202 177.804 91.221 178.142 91.1841 178.468C91.1126 179.09 91.8852 179.485 92.4263 179.11L92.4254 179.109Z" fill="var(--fill-0, #9A9AE5)"/>
<path id="Vector_22" d="M69.1371 179.76L66.8684 184.153C66.8684 184.153 59.836 189.864 54.6184 186.35C49.4007 182.836 57.1141 194.917 61.4244 191.842C63.5792 190.305 64.3169 190.029 64.5152 190.14C64.8984 190.351 65.3041 190.52 65.6933 190.318C66.1406 190.086 66.5961 189.735 66.8691 189.206C67.5494 187.888 70.0451 184.374 70.2722 183.714C70.4992 183.056 70.9525 180.859 69.1378 179.761L69.1371 179.76Z" fill="var(--fill-0, #9A9AE5)"/>
<path id="Vector_23" d="M135.846 195.983C135.83 195.461 135.498 195.001 134.996 194.813L133.851 194.384C133.547 194.27 133.298 194.633 133.52 194.866C134.423 195.818 135.405 197.249 134.573 198.383C133.199 200.259 133.474 201.866 135.672 203.205C137.869 204.544 137.595 207.223 137.869 208.294C138.144 209.366 141.166 205.08 138.144 201.062C136.262 198.558 135.871 196.887 135.845 195.982L135.846 195.983Z" fill="var(--fill-0, #9A9AE5)"/>
</g>
</svg>
