<svg preserveAspectRatio="xMidYMid meet" style="display: block;" viewBox="0 0 32 32" fill="none" xmlns="http://www.w3.org/2000/svg">
<g id="truck">
<path id="Vector" d="M18.6669 23.9992V8.0008C18.6669 7.29363 18.3859 6.61542 17.8858 6.11537C17.3856 5.61532 16.7073 5.3344 16 5.3344H5.33248C4.62518 5.3344 3.94685 5.61532 3.44671 6.11537C2.94657 6.61542 2.6656 7.29363 2.6656 8.0008V22.666C2.6656 23.0196 2.80609 23.3587 3.05616 23.6087C3.30622 23.8587 3.64539 23.9992 3.99904 23.9992H6.66592M6.66592 23.9992C6.66592 25.4718 7.85992 26.6656 9.3328 26.6656C10.8057 26.6656 11.9997 25.4718 11.9997 23.9992M6.66592 23.9992C6.66592 22.5266 7.85992 21.3328 9.3328 21.3328C10.8057 21.3328 11.9997 22.5266 11.9997 23.9992M11.9997 23.9992H20.0003M20.0003 23.9992C20.0003 25.4718 21.1943 26.6656 22.6672 26.6656C24.1401 26.6656 25.3341 25.4718 25.3341 23.9992M20.0003 23.9992C20.0003 22.5266 21.1943 21.3328 22.6672 21.3328C24.1401 21.3328 25.3341 22.5266 25.3341 23.9992M25.3341 23.9992H28.001C28.3546 23.9992 28.6938 23.8587 28.9438 23.6087C29.1939 23.3587 29.3344 23.0196 29.3344 22.666V17.7998C29.3339 17.4973 29.2304 17.2039 29.041 16.9679L24.4007 11.1685C24.276 11.0123 24.1177 10.8862 23.9377 10.7995C23.7577 10.7127 23.5604 10.6675 23.3606 10.6672H18.6669" stroke="var(--stroke-0, black)" stroke-width="2" stroke-linecap="round"/>
</g>
</svg>
