<svg preserveAspectRatio="xMidYMid meet" style="display: block;" viewBox="0 0 32 32" fill="none" xmlns="http://www.w3.org/2000/svg">
<g id="flag">
<path id="Vector" d="M5.3344 29.3344V5.33248C5.3344 5.12547 5.38259 4.9213 5.47515 4.73615C5.56771 4.55099 5.7021 4.38993 5.86768 4.26573C7.25231 3.22707 8.93641 2.6656 10.6672 2.6656C14.6668 2.6656 17.3332 5.33248 20.4436 5.33248C22.2212 5.33248 23.5841 4.9769 24.5325 4.26573C24.7306 4.11715 24.9661 4.02667 25.2127 4.00443C25.4593 3.98219 25.7072 4.02907 25.9286 4.13981C26.1501 4.25056 26.3363 4.4208 26.4665 4.63145C26.5967 4.8421 26.6656 5.08484 26.6656 5.33248V18.6669C26.6656 18.8739 26.6174 19.0781 26.5248 19.2632C26.4323 19.4484 26.2979 19.6094 26.1323 19.7336C24.7477 20.7723 23.0636 21.3338 21.3328 21.3338C17.3332 21.3338 14.6668 18.6669 10.6672 18.6669C8.69955 18.6669 6.80095 19.3923 5.3344 20.7044" stroke="var(--stroke-0, black)" stroke-width="2" stroke-linecap="round"/>
</g>
</svg>
