<svg preserveAspectRatio="xMidYMid meet" style="display: block;" viewBox="0 0 28.664 35.34" fill="none" xmlns="http://www.w3.org/2000/svg">
<path id="Vector" d="M14.8986 34.2518C21.8312 31.8351 27.664 27.6683 27.664 19.3347V7.66763C27.664 7.22559 27.4884 6.80165 27.1759 6.48908C26.8634 6.17651 26.4395 6.00091 25.9975 6.00091C22.6645 6.00091 18.5149 4.01751 15.5985 1.46743C15.2455 1.16575 14.7964 1 14.332 1C13.8676 1 13.4185 1.16575 13.0655 1.46743C10.1657 4.00085 5.9995 6.00091 2.6665 6.00091C2.22452 6.00091 1.80064 6.17651 1.48811 6.48908C1.17558 6.80165 1 7.22559 1 7.66763V19.3347C1 27.6683 6.83275 31.8351 13.7821 34.2352C14.1412 34.369 14.5356 34.3749 14.8986 34.2518Z" stroke="var(--stroke-0, black)" stroke-width="2" stroke-linecap="round"/>
</svg>
