<svg preserveAspectRatio="none" width="100%" height="100%" overflow="visible" style="display: block;" viewBox="0 0 88.8498 87.9997" fill="none" xmlns="http://www.w3.org/2000/svg">
<g id="Group 2085665483">
<path id="Vector" d="M88.805 0H88.8498V87.9997H0V87.955L88.8122 87.9621L88.805 0Z" fill="var(--fill-0, #1C1C1C)"/>
<path id="Vector_2" d="M34.6113 51.7434C34.724 51.9018 34.9271 52.0584 35.081 52.1953L35.2994 52.3894L35.6761 52.623L36.5529 52.8332C36.7891 52.8896 37.0674 53.0175 37.3314 53.0175L49.6952 53.0229C49.8321 53.0229 50.0978 53.0793 50.0978 53.243L50.1032 55.8799C50.1032 55.9559 49.9207 56.0535 49.8231 56.0535H31.8223C31.672 56.0535 31.5709 55.9747 31.4564 55.9076C31.2855 55.8074 30.9786 55.8736 30.8077 55.8038L30.1948 55.5533L29.861 55.3672L29.4673 55.0943C28.9662 54.7471 28.5922 54.3024 28.22 53.8291L28.0259 53.532C27.9042 53.3459 27.7771 53.2045 27.6858 53.0131L27.3968 52.4064C27.3342 52.2758 27.251 52.1425 27.2519 51.9868C27.2519 51.7801 27.1955 51.6396 27.0747 51.4777C26.9718 51.3381 27.0175 51.1332 26.9763 50.9533L26.8412 50.3592V22.2986C27.0622 21.8271 26.9459 21.3985 27.1732 21.2544L27.3002 20.8187L27.5141 20.4035L27.7601 20.0089L27.9471 19.7101C28.135 19.4112 28.416 19.1204 28.7238 18.9271L29.1032 18.6891L29.6704 18.3482L30.1813 18.1469C30.4363 18.0467 30.6269 17.9894 30.9231 17.9894H49.2415C49.4205 17.9894 49.5216 18.0109 49.6871 18.0512C49.7435 18.4538 49.7229 18.8064 49.7211 19.2081L49.714 20.9717C49.714 21.105 49.7596 21.2356 49.6809 21.3421C49.6263 21.4173 49.4554 21.479 49.3498 21.471L48.7127 21.4235L48.302 21.3833H36.425L36.1011 21.4191C35.9024 21.4414 35.7208 21.4531 35.5454 21.5345L35.1177 21.7349C34.9746 21.802 34.8234 21.8414 34.7222 21.9756C34.6346 22.0919 34.5988 22.2127 34.5361 22.3451C34.469 22.4874 34.308 22.627 34.308 22.8086V23.4815L34.2131 23.673V33.1691C34.0843 33.4608 34.1693 33.6773 34.2847 33.9269C34.4833 34.3546 34.7706 34.6758 35.2573 34.6758H45.7466C45.9202 34.6758 46.0195 34.81 46.0759 34.9469C46.1662 35.1671 46.0938 35.4274 46.0956 35.6601L46.1063 36.9226L46.1009 37.2536C46.1 37.3261 45.9461 37.395 45.8423 37.395H34.8636C34.7428 37.5283 34.648 37.608 34.5057 37.6858C34.3634 37.7637 34.3411 37.9193 34.2838 38.0562C34.2024 38.2531 34.1174 38.4276 34.1219 38.6504L34.1433 39.716L34.2122 40.294L34.2149 50.6733C34.3966 50.8809 34.2525 51.1171 34.342 51.322C34.461 51.4365 34.5406 51.5922 34.6113 51.7434Z" fill="var(--fill-0, #1C1C1C)"/>
<path id="Vector_3" d="M78.3735 49.9726L78.9667 49.3463L79.6405 48.5437L79.9214 48.2582C80.0726 48.0023 80.248 47.7858 80.4323 47.5469L80.6685 47.2418L80.8904 46.8928C81.0533 46.6369 81.2251 46.4571 81.3575 46.1833L81.5875 45.8809C81.7369 45.684 82.0205 45.8871 82.1512 46.0061L82.7426 46.5457L83.3251 47.0575C83.3439 47.2543 83.3904 47.6059 83.3081 47.7813L83.0611 48.3057L82.8365 48.7146L82.6164 49.0626L82.4178 49.4098L82.1726 49.782L81.7279 50.411C81.3817 50.9014 81.0408 51.3926 80.6444 51.8167L80.069 52.4323L79.5367 52.9262C79.4624 52.9951 79.3926 53.0837 79.3434 53.1767L78.1319 54.1127L77.7597 54.3668L77.0895 54.8159L76.7477 55.0092L76.3451 55.2338L75.971 55.4458C75.818 55.5326 75.6525 55.6006 75.4762 55.6615C75.2812 55.7966 75.0691 55.853 74.8195 55.8449C74.6978 56.0113 74.5251 56.1008 74.3148 56.1008L73.9444 56.278C73.7252 56.2556 73.5337 56.3236 73.3646 56.4632C73.1042 56.448 72.8501 56.465 72.6434 56.6341L72.3338 56.6645L71.2637 56.7987L70.6857 56.8515L69.7229 56.8363L67.6551 56.7907L67.0279 56.7075L66.4705 56.6591C66.1636 56.4659 65.8406 56.4811 65.5006 56.4372C65.3341 56.3639 65.1659 56.2753 64.9574 56.261L64.4662 56.1115C64.3275 56.0695 64.2103 56.0516 64.1119 55.9666C63.8784 55.7671 63.6985 55.8914 63.4211 55.6767C63.1303 55.6507 62.9129 55.5326 62.6418 55.4181L62.1157 55.1962L61.6665 55.0146L61.2075 54.7587L60.8907 54.5815L60.523 54.331C60.2358 54.2469 60.0774 54.0876 59.8287 53.9319L59.4233 53.6787L59.0994 53.4613L58.8068 53.2582L58.5572 53.0613L58.2253 52.8117L57.9407 52.5701L57.3949 52.1057L56.2425 50.9595L55.9669 50.641C55.8148 50.4647 55.6609 50.3314 55.5267 50.1453L54.997 49.4152L54.631 48.8497L54.4207 48.558L54.2105 48.1902L53.9903 47.8296L53.8025 47.5254L53.5662 47.0915L53.3014 46.4517C53.2414 46.3068 53.1403 46.1708 53.1394 45.9927C53.0213 45.8361 52.9202 45.6733 52.8424 45.4863L52.6724 44.9297C52.6142 44.7382 52.4755 44.57 52.463 44.3401L52.3037 43.9875C52.2966 43.8014 52.2831 43.6368 52.2348 43.4802L52.1462 43.193L52.0648 42.7993L51.8868 42.0298L51.7356 41.05C51.706 40.8559 51.6282 40.6921 51.6246 40.4899L51.6031 39.3384C51.5324 38.9635 51.4215 38.6217 51.4197 38.2333L51.4161 36.9986L51.4618 36.145L51.6264 35.1715L51.6416 34.1031L51.8 33.5958C51.8179 33.109 51.8429 32.6527 51.9646 32.1928L52.1624 31.4475L52.3225 30.7093L52.4532 30.4963L52.6661 29.7787C52.7323 29.5568 52.7609 29.3716 52.8674 29.1658L53.0965 28.722L53.3121 28.1789L53.5412 27.6904L53.7568 27.2313L53.9787 26.7813L54.1899 26.4162L54.6498 25.6709L54.844 25.3685L55.1455 24.9175L55.5687 24.3466L55.7172 24.1346L56.1682 23.5512L56.3695 23.2693L56.8751 22.7504L57.6517 21.9558L58.7854 20.9877L59.6819 20.3157L59.9817 20.1189L60.4917 19.7431L60.7771 19.5436C60.9149 19.5087 61.0026 19.4774 61.1037 19.4067C61.4598 19.1606 61.8535 18.9933 62.2427 18.8045L62.6364 18.613L63.1786 18.3517C63.3442 18.2721 63.4524 18.2274 63.6538 18.1844C63.7701 18.1594 63.9419 18.0493 64.0645 17.9885C64.3078 18.0198 64.5127 17.9527 64.6586 17.7845C64.8912 17.7469 65.106 17.6825 65.3136 17.5876C65.5999 17.6046 65.8504 17.5706 66.1036 17.431C66.228 17.3621 66.4222 17.3836 66.5671 17.363L67.5531 17.2226C67.8618 17.1787 68.141 17.2118 68.447 17.2154L69.5708 17.2288L70.0039 17.1483L71.6207 17.3532C71.8829 17.3863 72.0949 17.3908 72.3446 17.491L72.9897 17.6118L73.7458 17.797L74.0017 17.9768C74.1126 17.992 74.3014 18.001 74.3685 18.0592C74.5126 18.1826 74.6719 18.1576 74.8481 18.2327L75.7357 18.6112L76.2797 18.8295L76.6305 19.0148L77.0269 19.2492L77.3436 19.463C77.6255 19.5534 77.8232 19.7386 78.0755 19.9086L78.3601 20.1001L78.76 20.382L78.9792 20.5582L79.6297 21.0298L80.3017 21.7035L80.6166 21.9782L81.5517 23.0904L81.7261 23.3132L82.093 23.8116C82.1583 23.901 82.2353 24.0022 82.2397 24.0907C82.2478 24.2357 82.1798 24.318 82.0823 24.4164L80.9889 25.5224L80.75 25.8114C80.6435 25.9402 80.5835 26.0046 80.4189 26.0046C80.2543 26.0046 80.2453 25.8302 80.1424 25.7103L79.542 25.0132C78.9023 24.1847 78.1516 23.4895 77.3588 22.8184C77.119 22.6153 77.0465 22.7083 76.8935 22.5213C76.6913 22.388 76.5106 22.2529 76.337 22.0829C76.0874 22.014 75.8681 21.8646 75.6972 21.648L75.342 21.5272L75.0262 21.3367L74.4992 21.0629C74.2943 20.9564 74.1645 20.8526 73.922 20.8195C73.7619 20.7971 73.5373 20.7229 73.3959 20.6477C73.1901 20.5376 73.0121 20.501 72.7875 20.4383C72.4797 20.3515 72.1746 20.254 71.8525 20.2585C71.7379 20.2603 71.5464 20.1413 71.4444 20.0903L69.6737 20.0804L68.4363 20.0894L67.92 20.2567C67.588 20.2656 67.3429 20.3032 67.0422 20.4339L66.6414 20.5189L66.0678 20.7551L65.7072 20.8848L65.2867 21.0781L64.8161 21.3241L64.4832 21.538L64.1924 21.7375L63.6162 22.1956L63.3433 22.4104C63.2547 22.4802 63.1697 22.5374 63.0954 22.6126L62.6284 23.0877L62.4226 23.3302L61.994 23.8465L61.5072 24.5184L61.263 24.896L60.9838 25.3362L60.8165 25.695L60.5651 26.1138C60.4944 26.2319 60.4917 26.4484 60.387 26.5701C60.2984 26.673 60.2796 26.8448 60.2233 26.9549C60.1535 27.0909 60.0327 27.2117 60.0461 27.3879C60.0604 27.5866 59.9638 27.7011 59.8985 27.8568L59.6685 28.4071L59.5656 28.9752L59.3858 29.5711L59.2211 30.0543C59.2703 30.3621 59.1826 30.559 59.0109 30.8032L58.9885 31.4466L58.8489 32.4156L58.7138 33.3354L58.6628 33.8311L58.6306 35.0176L58.5581 35.7056L58.5232 36.1557L58.5205 38.2083L58.5501 38.5635C58.5787 38.9053 58.6136 39.1907 58.6735 39.5218L58.712 40.6134L58.8077 41.2433L58.882 41.6943L58.9411 42.0924C58.9733 42.3072 59.0064 42.5076 59.0001 42.7304C58.9903 43.0883 59.2462 43.3191 59.2936 43.5867L59.3902 44.1307C59.4054 44.2184 59.4037 44.4117 59.4484 44.4832C59.5262 44.6058 59.6282 44.7624 59.5907 44.9154C59.5432 45.1114 59.7276 45.2384 59.7696 45.344C59.8233 45.5838 59.8886 45.7717 59.9915 45.982L60.2304 46.4714L60.3324 46.8535L60.5516 47.3241C60.6993 47.6408 60.9185 47.895 61.0106 48.2385L61.3149 48.6394L61.5198 48.9812L61.7417 49.3015L62.0718 49.7847L62.6588 50.488L63.1053 50.9765L63.3245 51.2038L63.5142 51.3899L63.7728 51.6503L64.6255 52.2802L64.8778 52.4833L65.3091 52.7186L65.6911 52.9656L66.0848 53.1606L66.5564 53.3977C66.7881 53.5141 66.9635 53.5785 67.2337 53.6348C67.4798 53.6867 67.7849 53.9069 68.302 53.9874L68.8827 54.0778L69.6111 54.1628C69.8437 54.1896 70.0549 54.1717 70.2893 54.161L71.0338 54.1252L71.9321 53.9498C72.1495 53.8236 72.3839 53.753 72.6461 53.7834L73.0666 53.5686C73.2367 53.5668 73.3753 53.5078 73.4836 53.4103L74.0688 53.191C74.2638 53.1177 74.4428 53.0533 74.6038 52.9119C74.7434 52.7884 74.8911 52.7383 75.0503 52.6309L75.3653 52.4189L75.6901 52.2354L76.2538 51.7952L77.1485 51.1152L77.6595 50.6768L78.3708 49.9762L78.3735 49.9726Z" fill="var(--fill-0, #1C1C1C)"/>
<path id="Vector_4" d="M16.4565 56.0549L10.2987 56.0594L9.74576 56.1068C9.58828 56.1202 9.35833 56.0388 9.35833 55.8213V19.4368L9.23753 18.9312L9.57754 18.7988H16.8314C17.0228 18.9876 16.9548 19.1845 16.9548 19.4287V55.943L16.673 56.2034L16.4565 56.0531V56.0549Z" fill="var(--fill-0, #1C1C1C)"/>
<path id="Vector_5" d="M59.9054 73.8072L60.7035 73.7266L61.4685 73.6434L62.1181 73.5692C62.1664 73.9816 62.2523 74.3718 62.5816 74.6339C62.9887 74.9587 63.5971 74.9569 64.0239 74.6822C64.4078 74.4353 64.6494 74.0836 64.7594 73.6551L64.8793 73.1898L64.9581 72.7406L65.0502 71.9514C64.2593 72.678 63.2625 72.9312 62.2299 72.6646C60.8395 72.3049 59.8114 71.1068 59.5904 69.6626C59.5045 69.1043 59.5108 68.5084 59.5886 67.9501C59.8105 66.3574 60.9862 65.1065 62.5413 64.7996C64.4436 64.4238 66.234 65.3069 66.9981 67.0723C67.2272 67.6011 67.3909 68.1308 67.4634 68.7097L67.5672 69.5347L67.569 71.9273L67.4732 72.7361L67.3775 73.2488C66.9892 75.3256 65.4708 76.8708 63.3233 76.9165L62.5234 76.8717C60.9442 76.6355 60.1058 75.645 59.7747 74.1239L59.7354 73.9432C59.7246 73.894 59.8508 73.8134 59.9036 73.8081L59.9054 73.8072ZM64.1376 70.6952C64.8373 70.2478 64.9599 69.2502 64.84 68.4511C64.755 67.8847 64.5411 67.3533 64.0642 67.0141C63.7072 66.76 63.2786 66.6714 62.825 66.8486C62.51 66.9712 62.1924 67.2772 62.0859 67.6924L61.9714 68.1389L61.9776 69.4157C61.9785 69.7002 62.1056 69.9847 62.2416 70.2201C62.6299 70.8911 63.4683 71.122 64.1358 70.6952H64.1376Z" fill="var(--fill-0, #1C1C1C)"/>
<path id="Vector_6" d="M25.1643 68.9145C27.1194 68.587 28.8749 70.0947 29.1433 72.0927C29.2122 72.6036 29.206 73.1109 29.1407 73.612C28.9277 75.2306 27.7726 76.5003 26.1942 76.8287C24.4271 77.1955 22.6796 76.4421 21.8412 74.8271C21.5844 74.3323 21.3947 73.7999 21.3017 73.2371L21.2122 72.7002L21.1317 71.8037V70.015L21.2104 69.1185L21.2972 68.5763L21.3759 68.213C21.7696 66.4002 23.0294 65.0107 24.8914 64.7565L26.1888 64.7646C27.8093 65.0196 28.721 66.1667 28.9832 67.7531C28.7282 67.8703 28.4893 67.8506 28.2316 67.8784L27.3046 67.9786L26.6031 68.0546L26.5235 67.6565C26.3991 67.0328 25.8667 66.6839 25.2153 66.7635C24.6096 66.8378 24.1318 67.3209 23.9734 67.9142L23.8303 68.4501L23.7551 68.8474L23.6603 69.6992C24.1121 69.2742 24.5711 69.0111 25.1634 68.9127L25.1643 68.9145ZM26.6416 73.9028L26.7499 73.4661V72.2484L26.6479 71.8225C26.511 71.2552 26.0457 70.7962 25.4587 70.73C24.6266 70.6369 24.0173 71.274 23.8875 72.0506C23.815 72.4864 23.7989 72.8658 23.8866 73.3024C23.9859 73.799 24.1899 74.2678 24.6006 74.5864C24.9648 74.8691 25.4122 74.9756 25.8819 74.7895C26.2067 74.6606 26.5333 74.343 26.6425 73.9028H26.6416Z" fill="var(--fill-0, #1C1C1C)"/>
<path id="Vector_7" d="M43.0177 69.1835L42.9694 69.6863C43.746 68.9446 44.7491 68.7057 45.7718 68.9705C47.2034 69.3419 48.2395 70.6017 48.4382 72.0798C48.5053 72.5791 48.4963 73.0882 48.4382 73.583C48.2458 75.2222 47.0549 76.5304 45.4452 76.8364C44.2104 77.0717 42.9506 76.797 42.0254 75.9532C41.5977 75.564 41.2622 75.1462 41.0313 74.6165C40.3415 73.031 40.3388 71.1376 40.4685 69.4107L40.5446 68.8551L40.7638 67.8673C41.3597 65.7172 43.2593 64.4287 45.4675 64.766C47.0665 65.0103 48.0284 66.1502 48.2726 67.7259C48.1509 67.8163 48.0185 67.8449 47.8709 67.8583L47.0575 67.9308L46.2809 68.0176L45.897 68.04L45.829 67.6812C45.7109 67.0566 45.1929 66.6943 44.5495 66.7614C43.6038 66.8589 43.2092 67.7814 43.0848 68.6887L43.0168 69.1835H43.0177ZM45.9489 73.8837L46.0491 73.4685V72.2919L45.923 71.747C45.719 71.0491 45.0255 70.5945 44.3205 70.7538C43.6592 70.9032 43.2745 71.4606 43.1779 72.0968C43.1152 72.5066 43.083 72.8869 43.1966 73.2967C43.2754 74.0009 43.7263 74.6585 44.4341 74.8437C45.1114 75.0209 45.7834 74.5673 45.9489 73.8854V73.8837Z" fill="var(--fill-0, #1C1C1C)"/>
<path id="Vector_8" d="M33.4159 71.8983L34.2266 71.1387L35.3907 69.9755C35.9624 69.4046 36.3158 68.5689 36.1315 67.7583C35.9427 66.9315 35.1893 66.6523 34.3706 66.7919C33.5188 66.9369 33.2737 67.6777 33.2021 68.5134L32.4782 68.449L31.494 68.3551L30.7835 68.2701L30.8712 67.5945C31.0224 66.9136 31.2918 66.2533 31.8054 65.7638C32.4263 65.1733 33.2307 64.8816 34.0682 64.7626H35.5383C36.306 64.8637 37.02 65.1393 37.5873 65.6627C38.4937 66.4993 38.746 67.4558 38.6046 68.6772C38.4668 69.8699 37.5587 71.1521 36.6666 71.9681L35.1025 73.3988C34.7643 73.7084 34.4619 74.0117 34.1863 74.4081H38.4731L38.6512 74.503L38.6377 76.722H30.5205C30.5921 75.6957 30.9598 74.7669 31.5521 73.9572C32.1042 73.2029 32.7368 72.5363 33.4168 71.8983H33.4159Z" fill="var(--fill-0, #1C1C1C)"/>
<path id="Vector_9" d="M53.6421 68.3285C52.8091 68.987 51.9653 69.514 50.9641 69.837L50.8174 69.8988C50.7833 69.9131 50.7127 69.8218 50.693 69.7878L50.6983 67.7084C51.4061 67.4632 52.002 67.1187 52.5782 66.6687C53.2744 66.1846 53.7772 65.535 54.0949 64.7172L56.0938 64.7199L56.0955 76.5334C56.0955 76.5916 56.0419 76.6945 56.0052 76.724L53.6421 76.7169V68.3285Z" fill="var(--fill-0, #1C1C1C)"/>
</g>
</svg>
