<svg preserveAspectRatio="xMidYMid meet" style="display: block;" viewBox="0 0 92.5846 87.9997" fill="none" xmlns="http://www.w3.org/2000/svg">
<g id="Group 2085665483">
<g id="Vector">
</g>
<path id="Vector_2" d="M32.9373 50.643C33.073 50.8344 33.3175 51.0236 33.5027 51.1891L33.7655 51.4237L34.2189 51.7059L35.2744 51.96C35.5587 52.0282 35.8937 52.1828 36.2114 52.1828L51.0934 52.1893C51.2582 52.1893 51.5781 52.2574 51.5781 52.4553L51.5846 55.6419C51.5846 55.7338 51.3648 55.8517 51.2475 55.8517H29.5802C29.3993 55.8517 29.2776 55.7565 29.1398 55.6754C28.934 55.5543 28.5646 55.6343 28.3589 55.55L27.6212 55.2472L27.2194 55.0223L26.7456 54.6925C26.1424 54.273 25.6923 53.7355 25.2442 53.1635L25.0105 52.8045C24.864 52.5796 24.7111 52.4088 24.6012 52.1774L24.2534 51.4442C24.178 51.2864 24.0778 51.1253 24.0789 50.9371C24.0789 50.6873 24.011 50.5176 23.8657 50.3218C23.7418 50.1532 23.7967 49.9055 23.7472 49.6882L23.5846 48.9702V15.0593C23.8506 14.4894 23.7106 13.9715 23.9841 13.7974L24.1371 13.2708L24.3945 12.769L24.6906 12.2922L24.9157 11.931C25.1419 11.5699 25.4801 11.2184 25.8506 10.9849L26.3072 10.6972L26.99 10.2853L27.605 10.042C27.912 9.92087 28.1414 9.85166 28.4979 9.85166H50.5474C50.7628 9.85166 50.8845 9.87761 51.0838 9.92627C51.1516 10.4129 51.1268 10.8389 51.1247 11.3244L51.1161 13.4557C51.1161 13.6168 51.171 13.7747 51.0762 13.9033C51.0105 13.9942 50.8048 14.0688 50.6777 14.059L49.9109 14.0017L49.4165 13.9531H35.1204L34.7305 13.9963C34.4914 14.0234 34.2728 14.0374 34.0617 14.1358L33.5469 14.378C33.3745 14.4591 33.1925 14.5067 33.0708 14.6689C32.9653 14.8095 32.9222 14.9554 32.8468 15.1155C32.766 15.2874 32.5722 15.4561 32.5722 15.6756V16.4887L32.458 16.7201V28.1961C32.3029 28.5486 32.4052 28.8103 32.5442 29.112C32.7833 29.6288 33.129 30.017 33.7149 30.017H46.3406C46.5496 30.017 46.6691 30.1792 46.7369 30.3446C46.8457 30.6106 46.7585 30.9253 46.7606 31.2064L46.7736 32.7322L46.7671 33.1323C46.766 33.2198 46.5808 33.3031 46.4559 33.3031H33.241C33.0956 33.4642 32.9814 33.5605 32.8102 33.6545C32.6389 33.7486 32.612 33.9368 32.5431 34.1022C32.4451 34.3401 32.3428 34.5509 32.3482 34.8202L32.374 36.108L32.4569 36.8066L32.4602 49.3498C32.6788 49.6006 32.5054 49.8861 32.6131 50.1337C32.7563 50.2721 32.8522 50.4603 32.9373 50.643Z" fill="var(--fill-0, #9FA5AB)"/>
<path id="Vector_3" d="M86.5014 48.5353L87.2258 47.778L88.0485 46.8077L88.3916 46.4626C88.5762 46.1533 88.7904 45.8915 89.0154 45.6027L89.3039 45.2338L89.5748 44.8119C89.7737 44.5025 89.9835 44.2851 90.1452 43.9541L90.4259 43.5885C90.6084 43.3505 90.9548 43.596 91.1143 43.7399L91.8365 44.3922L92.5477 45.0109C92.5707 45.2489 92.6275 45.6741 92.527 45.8861L92.2254 46.52L91.9512 47.0143L91.6824 47.4351L91.4398 47.8548L91.1405 48.3048L90.5975 49.0653C90.1747 49.6581 89.7584 50.252 89.2744 50.7647L88.5719 51.509L87.9218 52.1061C87.8311 52.1894 87.7459 52.2965 87.6858 52.409L86.2064 53.5405L85.7519 53.8477L84.9336 54.3907L84.5162 54.6244L84.0246 54.8959L83.5679 55.1522C83.3811 55.2572 83.1789 55.3394 82.9637 55.413C82.7255 55.5763 82.4666 55.6444 82.1618 55.6347C82.0132 55.8359 81.8023 55.9441 81.5456 55.9441L81.0932 56.1583C80.8255 56.1312 80.5917 56.2134 80.3852 56.3822C80.0673 56.3638 79.757 56.3844 79.5046 56.5888L79.1266 56.6256L77.8199 56.7878L77.1141 56.8517L75.9385 56.8333L73.4136 56.7781L72.6477 56.6775L71.967 56.6191C71.5923 56.3854 71.1978 56.4038 70.7827 56.3508C70.5794 56.2621 70.374 56.155 70.1195 56.1377L69.5197 55.9571C69.3503 55.9062 69.2072 55.8846 69.087 55.7818C68.8018 55.5406 68.5822 55.691 68.2435 55.4313C67.8885 55.4 67.623 55.2572 67.2919 55.1187L66.6495 54.8504L66.101 54.6309L65.5405 54.3215L65.1538 54.1073L64.7047 53.8044C64.354 53.7027 64.1606 53.5102 63.8569 53.3219L63.3619 53.0158L62.9664 52.753L62.6092 52.5074L62.3043 52.2694L61.899 51.9676L61.5516 51.6755L60.8851 51.1141L59.4779 49.7284L59.1414 49.3433C58.9556 49.1302 58.7677 48.969 58.6038 48.744L57.957 47.8613L57.5102 47.1777L57.2534 46.825L56.9966 46.3804L56.7279 45.9445L56.4984 45.5767L56.21 45.0521L55.8866 44.2786C55.8134 44.1034 55.6899 43.9389 55.6888 43.7237C55.5446 43.5344 55.4212 43.3375 55.3261 43.1114L55.1185 42.4386C55.0475 42.2071 54.8782 42.0037 54.8629 41.7257L54.6684 41.2995C54.6596 41.0745 54.6433 40.8755 54.5843 40.6862L54.4761 40.3389L54.3767 39.863L54.1592 38.9327L53.9746 37.7482C53.9385 37.5134 53.8435 37.3155 53.8391 37.071L53.8129 35.6788C53.7266 35.2255 53.5911 34.8123 53.5889 34.3428L53.5846 32.85L53.6403 31.8181L53.8413 30.6411L53.8599 29.3495L54.0533 28.7362C54.0751 28.1477 54.1057 27.596 54.2543 27.04L54.4958 26.1389L54.6913 25.2465L54.8508 24.989L55.1109 24.1215C55.1917 23.8532 55.2267 23.6293 55.3567 23.3805L55.6364 22.844L55.8997 22.1873L56.1794 21.5967L56.4427 21.0418L56.7137 20.4977L56.9715 20.0563L57.5331 19.1552L57.7702 18.7896L58.1384 18.2444L58.6552 17.5543L58.8365 17.2979L59.3872 16.5926L59.633 16.2518L60.2503 15.6244L61.1987 14.6638L62.5829 13.4934L63.6777 12.681L64.0437 12.443L64.6665 11.9887L65.015 11.7475C65.1833 11.7053 65.2903 11.6674 65.4138 11.582C65.8486 11.2845 66.3294 11.0822 66.8046 10.854L67.2854 10.6225L67.9475 10.3066C68.1496 10.2103 68.2818 10.1562 68.5276 10.1043C68.6696 10.074 68.8794 9.94097 69.0291 9.86741C69.3263 9.90528 69.5765 9.82415 69.7546 9.62078C70.0386 9.57535 70.3008 9.49746 70.5543 9.3828C70.9039 9.40335 71.2099 9.36224 71.5191 9.19349C71.6709 9.1102 71.908 9.13616 72.085 9.11128L73.289 8.94145C73.666 8.88844 74.0068 8.92847 74.3805 8.93279L75.7528 8.94902L76.2816 8.85166L78.2558 9.09938C78.576 9.13941 78.8349 9.14481 79.1397 9.26597L79.9275 9.412L80.8507 9.63592L81.1632 9.85335C81.2986 9.87174 81.5292 9.88256 81.6111 9.95287C81.787 10.1022 81.9815 10.0719 82.1967 10.1627L83.2806 10.6203L83.9448 10.8842L84.3731 11.1082L84.8571 11.3916L85.2439 11.6501C85.5881 11.7594 85.8295 11.9833 86.1376 12.1888L86.4851 12.4203L86.9734 12.7611L87.2411 12.9742L88.0354 13.5442L88.8559 14.3588L89.2405 14.6909L90.3822 16.0355L90.5953 16.3048L91.0432 16.9074C91.123 17.0155 91.217 17.1378 91.2224 17.2449C91.2323 17.4201 91.1492 17.5196 91.0301 17.6386L89.695 18.9757L89.4033 19.3251C89.2733 19.4808 89.2001 19.5587 88.9991 19.5587C88.798 19.5587 88.7871 19.3478 88.6614 19.2028L87.9283 18.3601C87.1471 17.3585 86.2305 16.5179 85.2625 15.7066C84.9697 15.4611 84.8812 15.5736 84.6943 15.3475C84.4474 15.1863 84.2267 15.023 84.0148 14.8175C83.7099 14.7342 83.4423 14.5535 83.2336 14.2917L82.7998 14.1457L82.4141 13.9153L81.7706 13.5843C81.5204 13.4555 81.362 13.3301 81.0659 13.29C80.8703 13.263 80.5961 13.1732 80.4235 13.0823C80.1722 12.9493 79.9548 12.9049 79.6805 12.8292C79.3047 12.7243 78.9321 12.6064 78.5388 12.6118C78.399 12.614 78.1651 12.4701 78.0406 12.4084L75.8784 12.3965L74.3674 12.4073L73.737 12.6096C73.3316 12.6204 73.0323 12.6659 72.6652 12.8238L72.1757 12.9266L71.4754 13.2122L71.035 13.369L70.5215 13.6027L69.9469 13.9001L69.5404 14.1587L69.1853 14.3999L68.4817 14.9538L68.1485 15.2134C68.0403 15.2977 67.9365 15.367 67.8458 15.4578L67.2755 16.0322L67.0242 16.3254L66.5009 16.9496L65.9065 17.7619L65.6083 18.2184L65.2674 18.7507L65.0631 19.1844L64.7561 19.6907C64.6698 19.8335 64.6665 20.0953 64.5386 20.2424C64.4305 20.3668 64.4075 20.5745 64.3387 20.7075C64.2535 20.8719 64.106 21.018 64.1224 21.2311C64.1399 21.4712 64.0219 21.6097 63.9421 21.7979L63.6613 22.4632L63.5357 23.1501L63.3161 23.8705L63.115 24.4547C63.1751 24.8268 63.068 25.0648 62.8583 25.3601L62.831 26.1379L62.6605 27.3094L62.4955 28.4214L62.4333 29.0207L62.3939 30.4551L62.3054 31.2869L62.2628 31.831L62.2595 34.3125L62.2956 34.742C62.3306 35.1552 62.3732 35.5003 62.4464 35.9005L62.4934 37.2203L62.6103 37.9818L62.7009 38.527L62.7731 39.0084C62.8124 39.268 62.8528 39.5103 62.8452 39.7797C62.8331 40.2124 63.1456 40.4914 63.2035 40.8149L63.3215 41.4726C63.3401 41.5786 63.3379 41.8122 63.3925 41.8988C63.4876 42.047 63.6121 42.2363 63.5663 42.4213C63.5083 42.6582 63.7334 42.8118 63.7848 42.9394C63.8503 43.2293 63.9301 43.4565 64.0557 43.7107L64.3474 44.3024L64.472 44.7643L64.7397 45.3333C64.9199 45.7162 65.1876 46.0235 65.3002 46.4388L65.6716 46.9235L65.9218 47.3367L66.1928 47.7239L66.5959 48.3081L67.3127 49.1583L67.8579 49.749L68.1255 50.0237L68.3572 50.2487L68.6729 50.5635L69.7141 51.3251L70.0222 51.5706L70.5489 51.8551L71.0154 52.1537L71.4961 52.3895L72.0719 52.6762C72.3549 52.8168 72.569 52.8947 72.899 52.9628C73.1994 53.0255 73.572 53.2917 74.2035 53.389L74.9126 53.4983L75.8019 53.601C76.086 53.6335 76.3438 53.6119 76.6301 53.5989L77.5391 53.5556L78.636 53.3436C78.9015 53.1911 79.1878 53.1056 79.5079 53.1424L80.0214 52.8828C80.229 52.8806 80.3984 52.8092 80.5306 52.6913L81.2451 52.4263C81.4833 52.3376 81.7018 52.2597 81.8985 52.0888C82.0689 51.9395 82.2492 51.8789 82.4436 51.7491L82.8282 51.4927L83.2248 51.271L83.9131 50.7388L85.0057 49.9166L85.6296 49.3866L86.4982 48.5396L86.5014 48.5353Z" fill="var(--fill-0, #9FA5AB)"/>
<path id="Vector_4" d="M11.9246 55.673L3.95754 55.6784L3.24211 55.7354C3.03836 55.7515 2.74084 55.6536 2.74084 55.392V11.6192L2.58455 11.011L3.02447 10.8517H12.4096C12.6574 11.0788 12.5694 11.3156 12.5694 11.6095V55.5384L12.2047 55.8517L11.9246 55.6708V55.673Z" fill="var(--fill-0, #9FA5AB)"/>
<path id="Vector_5" d="M59.9053 73.8072L60.7035 73.7266L61.4685 73.6434L62.1181 73.5692C62.1664 73.9816 62.2523 74.3718 62.5816 74.6339C62.9887 74.9587 63.5971 74.9569 64.0239 74.6822C64.4078 74.4353 64.6494 74.0836 64.7594 73.6551L64.8793 73.1898L64.958 72.7406L65.0502 71.9514C64.2592 72.678 63.2625 72.9312 62.2299 72.6646C60.8395 72.3049 59.8114 71.1068 59.5904 69.6626C59.5045 69.1043 59.5107 68.5084 59.5886 67.9501C59.8105 66.3574 60.9862 65.1065 62.5413 64.7996C64.4436 64.4238 66.234 65.3069 66.9981 67.0723C67.2272 67.6011 67.3909 68.1308 67.4634 68.7097L67.5672 69.5347L67.569 71.9273L67.4732 72.7361L67.3775 73.2488C66.9892 75.3256 65.4707 76.8708 63.3233 76.9165L62.5234 76.8717C60.9441 76.6355 60.1058 75.645 59.7747 74.1239L59.7353 73.9432C59.7246 73.894 59.8507 73.8134 59.9035 73.8081L59.9053 73.8072ZM64.1375 70.6952C64.8372 70.2478 64.9598 69.2502 64.8399 68.4511C64.7549 67.8847 64.5411 67.3533 64.0642 67.0141C63.7072 66.76 63.2786 66.6714 62.8249 66.8486C62.51 66.9712 62.1923 67.2772 62.0859 67.6924L61.9713 68.1389L61.9776 69.4157C61.9785 69.7002 62.1055 69.9847 62.2415 70.2201C62.6299 70.8911 63.4683 71.122 64.1358 70.6952H64.1375Z" fill="var(--fill-0, #9FA5AB)"/>
<path id="Vector_6" d="M25.1643 68.9145C27.1194 68.587 28.8749 70.0947 29.1433 72.0927C29.2122 72.6036 29.2059 73.1109 29.1406 73.612C28.9277 75.2306 27.7725 76.5003 26.1942 76.8287C24.427 77.1955 22.6796 76.4421 21.8412 74.8271C21.5844 74.3323 21.3947 73.7999 21.3016 73.2371L21.2122 72.7002L21.1316 71.8037V70.015L21.2104 69.1185L21.2972 68.5763L21.3759 68.213C21.7696 66.4002 23.0294 65.0107 24.8914 64.7565L26.1888 64.7646C27.8092 65.0196 28.721 66.1667 28.9832 67.7531C28.7281 67.8703 28.4892 67.8506 28.2316 67.8784L27.3046 67.9786L26.6031 68.0546L26.5235 67.6565C26.3991 67.0328 25.8667 66.6839 25.2153 66.7635C24.6096 66.8378 24.1318 67.3209 23.9734 67.9142L23.8302 68.4501L23.7551 68.8474L23.6602 69.6992C24.1121 69.2742 24.5711 69.0111 25.1634 68.9127L25.1643 68.9145ZM26.6416 73.9028L26.7498 73.4661V72.2484L26.6478 71.8225C26.5109 71.2552 26.0457 70.7962 25.4587 70.73C24.6266 70.6369 24.0172 71.274 23.8875 72.0506C23.815 72.4864 23.7989 72.8658 23.8866 73.3024C23.9859 73.799 24.1899 74.2678 24.6006 74.5864C24.9648 74.8691 25.4122 74.9756 25.8819 74.7895C26.2067 74.6606 26.5333 74.343 26.6425 73.9028H26.6416Z" fill="var(--fill-0, #9FA5AB)"/>
<path id="Vector_7" d="M43.0177 69.1835L42.9693 69.6863C43.746 68.9446 44.749 68.7057 45.7717 68.9705C47.2034 69.3419 48.2395 70.6017 48.4381 72.0798C48.5052 72.5791 48.4963 73.0882 48.4381 73.583C48.2458 75.2222 47.0548 76.5304 45.4452 76.8364C44.2104 77.0717 42.9506 76.797 42.0254 75.9532C41.5977 75.564 41.2621 75.1462 41.0313 74.6165C40.3414 73.031 40.3388 71.1376 40.4685 69.4107L40.5445 68.8551L40.7638 67.8673C41.3597 65.7172 43.2593 64.4287 45.4675 64.766C47.0665 65.0103 48.0283 66.1502 48.2726 67.7259C48.1509 67.8163 48.0185 67.8449 47.8708 67.8583L47.0575 67.9308L46.2809 68.0176L45.897 68.04L45.829 67.6812C45.7109 67.0566 45.1928 66.6943 44.5495 66.7614C43.6037 66.8589 43.2091 67.7814 43.0848 68.6887L43.0168 69.1835H43.0177ZM45.9489 73.8837L46.0491 73.4685V72.2919L45.923 71.747C45.7189 71.0491 45.0255 70.5945 44.3204 70.7538C43.6592 70.9032 43.2745 71.4606 43.1778 72.0968C43.1152 72.5066 43.083 72.8869 43.1966 73.2967C43.2754 74.0009 43.7263 74.6585 44.4341 74.8437C45.1114 75.0209 45.7834 74.5673 45.9489 73.8854V73.8837Z" fill="var(--fill-0, #9FA5AB)"/>
<path id="Vector_8" d="M33.4159 71.8983L34.2265 71.1387L35.3906 69.9755C35.9624 69.4046 36.3158 68.5689 36.1315 67.7583C35.9427 66.9315 35.1893 66.6523 34.3706 66.7919C33.5188 66.9369 33.2736 67.6777 33.202 68.5134L32.4782 68.449L31.4939 68.3551L30.7835 68.2701L30.8712 67.5945C31.0224 66.9136 31.2917 66.2533 31.8053 65.7638C32.4263 65.1733 33.2307 64.8816 34.0682 64.7626H35.5383C36.306 64.8637 37.02 65.1393 37.5873 65.6627C38.4937 66.4993 38.746 67.4558 38.6046 68.6772C38.4668 69.8699 37.5586 71.1521 36.6666 71.9681L35.1025 73.3988C34.7643 73.7084 34.4619 74.0117 34.1863 74.4081H38.4731L38.6511 74.503L38.6377 76.722H30.5204C30.592 75.6957 30.9598 74.7669 31.5521 73.9572C32.1042 73.2029 32.7368 72.5363 33.4168 71.8983H33.4159Z" fill="var(--fill-0, #9FA5AB)"/>
<path id="Vector_9" d="M53.6421 68.3285C52.8091 68.987 51.9653 69.514 50.9641 69.837L50.8173 69.8988C50.7833 69.9131 50.7126 69.8218 50.6929 69.7878L50.6983 67.7084C51.4061 67.4632 52.002 67.1187 52.5782 66.6687C53.2743 66.1846 53.7772 65.535 54.0948 64.7172L56.0937 64.7199L56.0955 76.5334C56.0955 76.5916 56.0418 76.6945 56.0051 76.724L53.6421 76.7169V68.3285Z" fill="var(--fill-0, #9FA5AB)"/>
</g>
</svg>
