<svg width="60" height="50" viewBox="0 0 60 50" fill="none" xmlns="http://www.w3.org/2000/svg">
<path d="M41.9231 13.8268V35.1718L23.4371 45.8448L4.95312 35.1718V13.8268L23.4381 3.15381L41.9231 13.8268Z" stroke="#BAD9F7" stroke-width="2"/>
<path d="M36.485 2.1875L55.97 13.4375V35.9375L36.484 47.1875L17 35.9375V13.4375L36.485 2.1875Z" fill="#BAD9F7"/>
<path d="M26 26.4149L34.6455 17.3861L34.8903 17.1305L35.143 17.4043L36.8468 19.2504L36.2485 19.2295L44.0253 11.0581L45.0388 12.0769L36.8271 19.8112L36.5004 20.1189L36.2288 19.7902L34.6284 17.8538L35.1258 17.872L26 26.4149Z" fill="#262626"/>
<path d="M45.7024 13.7136L46.9274 9.1875L42.395 10.389L45.7024 13.7136Z" fill="#262626"/>
<path d="M47.001 16.355H41.001V35.355H47.001V16.355Z" fill="#262626"/>
<path d="M39 21.3545H34V35.3545H39V21.3545Z" fill="#262626"/>
<path d="M32 26.3545H26V35.3545H32V26.3545Z" fill="#262626"/>
</svg>
