<svg preserveAspectRatio="none" width="100%" height="100%" overflow="visible" style="display: block;" viewBox="0 0 160 170" fill="none" xmlns="http://www.w3.org/2000/svg">
<g id="Layer_1" clip-path="url(#clip0_0_33)">
<path id="Vector" d="M140.974 88.6008C132.024 88.6008 124.515 94.9852 122.492 103.588H33.039L54.8294 70.9353H72.8122C74.7897 79.604 82.3291 86.0548 91.3243 86.0548C101.832 86.0548 110.347 77.2611 110.347 66.4096C110.347 55.558 101.832 46.7643 91.3243 46.7643C82.246 46.7643 74.6536 53.3323 72.7592 62.1182H50.3412L22.6676 103.591H-2.19681V57.1083L18.3836 29.3175H36.1471C38.0603 38.08 45.6414 44.6245 54.7046 44.6245C65.2122 44.6245 73.7272 35.8308 73.7272 24.9792C73.7272 14.1277 65.2122 5.33401 54.7046 5.33401C45.6905 5.33401 38.1473 11.8043 36.1811 20.4965H14.1677L-2.19302 42.5901V4.40856C-2.19681 1.97585 -4.11003 -4.81718e-07 -6.46942 -4.81718e-07C-8.82881 -4.81718e-07 -10.7383 1.97585 -10.7383 4.40856V211.588C-10.7383 214.02 -8.82881 215.996 -6.46942 215.996C-4.11003 215.996 -2.20059 214.02 -2.20059 211.588V172.129L20.2893 195.351H40.6844C42.4993 204.246 50.1409 210.924 59.2948 210.924C69.8024 210.924 78.3174 202.13 78.3174 191.278C78.3174 180.427 69.8024 171.633 59.2948 171.633C50.3753 171.633 42.8887 177.975 40.8356 186.53H23.8283L-2.19681 159.653V116.036L26.2898 153.745L76.2341 152.39C78.2758 160.965 85.7699 167.326 94.7046 167.326C105.212 167.326 113.727 158.533 113.727 147.681C113.727 136.829 105.212 128.036 94.7046 128.036C85.562 128.036 77.928 134.693 76.1017 143.573L30.3734 144.811L5.89092 112.405H122.386C124.231 121.257 131.854 127.891 140.977 127.891C151.485 127.891 160 119.098 160 108.246C160 97.3945 151.485 88.6008 140.977 88.6008H140.974ZM91.3243 57.3113C96.1906 57.3113 100.134 61.3841 100.134 66.4096C100.134 71.4351 96.1906 75.5039 91.3243 75.5039C86.4581 75.5039 82.5182 71.4312 82.5182 66.4096C82.5182 61.388 86.4619 57.3113 91.3243 57.3113ZM54.7008 15.881C59.5671 15.881 63.5107 19.9537 63.5107 24.9792C63.5107 30.0048 59.5671 34.0736 54.7008 34.0736C49.8346 34.0736 45.8947 30.0009 45.8947 24.9792C45.8947 19.9576 49.8384 15.881 54.7008 15.881ZM59.2948 182.188C64.1611 182.188 68.1047 186.261 68.1047 191.286C68.1047 196.312 64.1611 200.381 59.2948 200.381C54.4286 200.381 50.4887 196.308 50.4887 191.286C50.4887 186.265 54.4324 182.188 59.2948 182.188ZM94.7008 138.591C99.5671 138.591 103.511 142.663 103.511 147.689C103.511 152.714 99.5671 156.783 94.7008 156.783C89.8346 156.783 85.8947 152.71 85.8947 147.689C85.8947 142.667 89.8384 138.591 94.7008 138.591ZM140.974 117.344C136.111 117.344 132.168 113.272 132.168 108.25C132.168 103.228 136.111 99.1516 140.974 99.1516C145.836 99.1516 149.784 103.224 149.784 108.25C149.784 113.275 145.84 117.344 140.974 117.344Z" fill="var(--fill-0, #84C38C)"/>
<circle id="Ellipse 1" cx="141" cy="108" r="11" transform="rotate(90 141 108)" fill="var(--fill-0, #84C38C)"/>
<circle id="Ellipse 2" cx="95" cy="148" r="11" transform="rotate(90 95 148)" fill="var(--fill-0, #84C38C)"/>
<circle id="Ellipse 3" cx="92" cy="66" r="11" transform="rotate(90 92 66)" fill="var(--fill-0, #84C38C)"/>
<circle id="Ellipse 4" cx="54" cy="26" r="11" transform="rotate(90 54 26)" fill="var(--fill-0, #84C38C)"/>
</g>
<defs>
<clipPath id="clip0_0_33">
<rect width="160" height="170" fill="white"/>
</clipPath>
</defs>
</svg>
