<svg preserveAspectRatio="none" width="100%" height="100%" overflow="visible" style="display: block;" viewBox="0 0 160 160" fill="none" xmlns="http://www.w3.org/2000/svg">
<g id="Objects" clip-path="url(#clip0_0_29)">
<path id="Vector" d="M138.198 35.8363L104.909 40.0613C101.731 40.4634 99.3152 37.1977 100.565 34.1819L103.414 27.2945C101.122 26.4127 98.7673 25.6717 96.3568 25.0771C93.994 24.5056 91.5835 24.0776 89.1421 23.7933C88.8386 23.7502 88.5296 23.7301 88.2234 23.6985L87.3047 23.6095L86.3831 23.5463C86.0741 23.5233 85.7651 23.4974 85.4588 23.4888C84.8407 23.463 84.2255 23.4285 83.6074 23.4228L82.6774 23.4055L81.7475 23.4142C81.1266 23.4113 80.5085 23.4429 79.8848 23.463C79.573 23.4687 79.2667 23.4975 78.9549 23.5118C78.6458 23.5319 78.334 23.5463 78.0221 23.5693L77.0894 23.6497L76.623 23.6899L76.1594 23.7416L75.2267 23.845C74.9177 23.8794 74.6086 23.9283 74.2968 23.9714C73.0578 24.1351 71.8216 24.362 70.5882 24.6032C69.3605 24.8675 68.1271 25.1432 66.9078 25.485C65.6857 25.8095 64.4776 26.1944 63.2695 26.5936L62.3705 26.9125L61.921 27.0704L61.4743 27.2428L60.5809 27.5845C60.2831 27.7023 59.9881 27.8258 59.6931 27.9464C57.3247 28.9172 55.0125 30.0604 52.7593 31.3413C50.5032 32.6166 48.3287 34.0613 46.2244 35.6266C45.9575 35.8162 45.7018 36.023 45.4434 36.224C45.1849 36.4251 44.9208 36.6233 44.6651 36.8301C44.1594 37.2494 43.6397 37.6544 43.1424 38.0881L42.3895 38.7314L41.6506 39.3949L41.2797 39.7281L40.9201 40.067L40.1953 40.7477C38.2848 42.5916 36.4755 44.5619 34.7814 46.6443C33.0985 48.7352 31.514 50.9296 30.0783 53.2388C29.0163 54.942 28.0246 56.7026 27.1115 58.5092C26.6283 59.4628 25.5045 59.8677 24.5493 59.4226C23.6277 58.9946 23.1726 57.9204 23.5041 56.941C24.1925 54.9018 24.9735 52.8884 25.8444 50.9094C27.0216 48.2297 28.3814 45.6247 29.8788 43.0914C31.3903 40.5668 33.0564 38.1225 34.8685 35.7789L35.5568 34.9086L35.9024 34.4749L36.2564 34.0469L36.9672 33.191L37.6976 32.3524C38.1809 31.7865 38.6922 31.2494 39.1923 30.698C39.4451 30.4251 39.7036 30.1609 39.9621 29.8909C40.2205 29.6238 40.4762 29.3509 40.7431 29.0924C42.8474 26.9871 45.0725 24.9852 47.4353 23.147C49.7924 21.3031 52.2676 19.5884 54.8579 18.0461C55.181 17.8536 55.5041 17.6583 55.83 17.4688L56.8133 16.9144L57.3078 16.6358L57.8079 16.3687L58.8081 15.8374C60.1538 15.1538 61.5164 14.4875 62.9071 13.8843C64.2922 13.2668 65.7082 12.7153 67.1326 12.1811C68.5654 11.6699 70.0095 11.1787 71.4732 10.7536C71.8413 10.6474 72.2065 10.5353 72.5745 10.4348L73.6815 10.139L74.2349 9.9925L74.7912 9.85751L75.9066 9.5904C76.2802 9.50424 76.6539 9.42956 77.0304 9.34914C77.404 9.27159 77.7777 9.18255 78.1542 9.11649C78.9071 8.97863 79.6601 8.82928 80.4186 8.71726L81.5565 8.53631L82.6971 8.38409C83.4585 8.27782 84.2227 8.20314 84.9896 8.12272C85.3717 8.07964 85.7566 8.05092 86.1387 8.01932L87.2906 7.92741L88.4453 7.86423C88.8302 7.84699 89.2151 7.81827 89.6 7.80966C92.6876 7.70338 95.7949 7.78093 98.905 8.05666C102.012 8.34101 105.114 8.82066 108.19 9.49275C108.974 9.66795 109.758 9.85464 110.539 10.0557L113.629 2.58805C114.877 -0.42773 118.85 -0.93036 120.78 1.68044L140.999 29.0407C142.93 31.6544 141.37 35.4227 138.193 35.8248L138.198 35.8363Z" fill="var(--fill-0, #8BB9E5)"/>
<path id="Vector_2" d="M97.357 152.851C97.4553 153.882 96.7726 154.821 95.778 155.017C93.7075 155.427 91.6116 155.743 89.4989 155.962C86.6416 156.26 83.7535 156.361 80.8597 156.298C77.9659 156.223 75.0609 155.97 72.1728 155.537L71.0911 155.361L70.5489 155.272L70.0095 155.172L68.9278 154.971L67.8518 154.741C67.1298 154.597 66.4218 154.414 65.7025 154.244C65.3457 154.158 64.9917 154.057 64.6349 153.966C64.2809 153.871 63.9213 153.782 63.5701 153.675C60.7354 152.866 57.9259 151.895 55.1867 150.723C52.4446 149.557 49.7559 148.224 47.1543 146.702C46.8284 146.512 46.5025 146.323 46.1795 146.13L45.2158 145.536L44.7326 145.237L44.2578 144.927L43.3082 144.306C42.0551 143.456 40.8105 142.583 39.6053 141.653C38.3888 140.736 37.2144 139.757 36.0513 138.763C34.9022 137.752 33.7644 136.718 32.6715 135.633C32.3989 135.36 32.1208 135.093 31.8511 134.817L31.0476 133.984L30.6458 133.567L30.2553 133.139L29.4715 132.284C29.213 131.996 28.9601 131.703 28.7045 131.41C28.4516 131.117 28.1903 130.83 27.9459 130.529C27.4543 129.931 26.9486 129.34 26.4737 128.725L25.7517 127.809L25.0522 126.875C24.5802 126.255 24.1363 125.614 23.6839 124.98C23.4564 124.664 23.24 124.336 23.0209 124.012L22.3691 123.038L21.7398 122.047C21.5319 121.717 21.3155 121.389 21.1161 121.05C19.4809 118.371 17.9947 115.579 16.6743 112.69C15.3622 109.797 14.2188 106.81 13.2467 103.749C13.0023 102.967 12.7691 102.18 12.5471 101.39L4.67779 102.39C1.50026 102.792 -0.913082 99.5264 0.334328 96.5107L13.4012 64.9283C14.6486 61.9125 18.6212 61.4099 20.5514 64.0207L40.7768 91.381C42.7069 93.9946 41.1477 97.7629 37.9701 98.1679L30.7104 99.087C31.1094 101.557 31.6601 104.016 32.3596 106.443C33.0564 108.821 33.8992 111.17 34.8797 113.474C34.9949 113.767 35.1298 114.048 35.259 114.335L35.6439 115.194L36.0513 116.044C36.1861 116.329 36.3182 116.613 36.4643 116.892C36.7508 117.452 37.029 118.017 37.3352 118.563L37.7847 119.393L38.2567 120.212C38.5658 120.763 38.9029 121.295 39.2288 121.835C39.3889 122.107 39.5659 122.366 39.7345 122.633C39.9059 122.897 40.0744 123.167 40.2486 123.429L40.7824 124.213L41.0493 124.606L41.3247 124.991L41.8781 125.764C42.0636 126.019 42.2602 126.269 42.4485 126.525C43.207 127.542 44.0162 128.521 44.8365 129.495C45.6737 130.451 46.525 131.405 47.4212 132.309C48.3062 133.231 49.239 134.107 50.1802 134.975L50.9022 135.612L51.2618 135.931L51.6299 136.241L52.3659 136.862C52.616 137.066 52.866 137.264 53.1161 137.465C55.1248 139.076 57.246 140.553 59.4571 141.905C61.6653 143.267 63.9747 144.467 66.3543 145.547C66.6493 145.688 66.95 145.811 67.2506 145.941C67.5512 146.067 67.849 146.202 68.1524 146.326C68.7593 146.564 69.3633 146.822 69.9814 147.047L70.9029 147.391L71.8328 147.713L72.2992 147.874L72.7684 148.023L73.7068 148.322C76.2241 149.091 78.7947 149.709 81.4104 150.169C84.0232 150.614 86.6753 150.918 89.3471 151.036C91.3222 151.125 93.3057 151.125 95.2948 151.027C96.3428 150.976 97.2502 151.771 97.3514 152.84L97.357 152.851Z" fill="var(--fill-0, #8BB9E5)"/>
<path id="Vector_3" d="M159.997 90.3499L159.975 91.4987L159.963 92.076L159.938 92.6505L159.888 93.8022C159.795 95.336 159.677 96.8754 159.491 98.4092C159.323 99.9458 159.081 101.471 158.82 103.002C158.536 104.524 158.233 106.049 157.859 107.557C157.766 107.933 157.679 108.315 157.581 108.692L157.278 109.817L157.126 110.383L156.96 110.943L156.629 112.063C156.513 112.437 156.39 112.807 156.272 113.178C156.148 113.548 156.039 113.922 155.904 114.289C155.642 115.025 155.395 115.769 155.111 116.495L154.696 117.592L154.255 118.678C153.965 119.408 153.645 120.12 153.333 120.838C153.179 121.2 153.01 121.553 152.844 121.906L152.344 122.972L151.822 124.026C151.645 124.376 151.476 124.733 151.288 125.077C149.835 127.863 148.214 130.577 146.427 133.191C144.632 135.799 142.674 138.307 140.567 140.693C140.027 141.299 139.477 141.9 138.918 142.491L143.697 148.959C145.63 151.573 144.067 155.341 140.89 155.743L107.603 159.966C104.426 160.371 102.009 157.102 103.26 154.089L116.324 122.504C117.571 119.488 121.544 118.983 123.474 121.596L127.885 127.562C129.776 125.973 131.582 124.259 133.29 122.423C134.956 120.62 136.527 118.698 137.988 116.676C138.176 116.426 138.347 116.168 138.527 115.912L139.064 115.142L139.578 114.358C139.749 114.097 139.926 113.836 140.089 113.568C140.418 113.034 140.758 112.506 141.07 111.96L141.547 111.144L142.005 110.317C142.32 109.769 142.598 109.206 142.896 108.646C143.048 108.367 143.177 108.08 143.32 107.798C143.461 107.514 143.601 107.232 143.739 106.945L144.135 106.081L144.334 105.647L144.523 105.21L144.899 104.334C145.025 104.042 145.138 103.746 145.259 103.45C145.742 102.269 146.166 101.063 146.579 99.851C146.97 98.6303 147.355 97.4039 147.675 96.1545C148.012 94.9109 148.29 93.6471 148.554 92.3776L148.734 91.4212L148.824 90.9415L148.903 90.4619L149.06 89.4997C149.108 89.178 149.15 88.8563 149.195 88.5318C149.554 85.9497 149.745 83.3303 149.788 80.6965C149.835 78.0598 149.698 75.4146 149.425 72.7693C149.397 72.4361 149.349 72.1087 149.31 71.7784C149.268 71.4481 149.231 71.1178 149.183 70.7875C149.082 70.1298 148.998 69.4663 148.88 68.8115L148.712 67.8234L148.52 66.8383L148.425 66.3443L148.318 65.8531L148.102 64.8708C147.495 62.26 146.731 59.6722 145.815 57.1275C144.885 54.5913 143.817 52.0926 142.581 49.6656C141.671 47.8733 140.676 46.1156 139.6 44.4038C139.033 43.499 139.252 42.3013 140.106 41.6781C140.929 41.0778 142.067 41.2099 142.73 41.9911C144.115 43.6197 145.43 45.3171 146.672 47.0806C148.352 49.4616 149.88 51.9691 151.277 54.5626C152.662 57.1648 153.898 59.8589 154.974 62.6334L155.367 63.6789L155.561 64.2016L155.746 64.7301L156.114 65.7871L156.457 66.8526C156.693 67.5621 156.893 68.283 157.109 69.001C157.213 69.36 157.306 69.7248 157.407 70.0867C157.502 70.4486 157.606 70.8105 157.693 71.1753C158.424 74.0905 159.008 77.0603 159.385 80.0732C159.77 83.0833 159.983 86.1306 159.994 89.1952C159.994 89.5772 160 89.9621 159.994 90.3441L159.997 90.3499Z" fill="var(--fill-0, #8BB9E5)"/>
</g>
<defs>
<clipPath id="clip0_0_29">
<rect width="160" height="160" fill="white"/>
</clipPath>
</defs>
</svg>
